<mxfile host="app.diagrams.net" agent="Mozilla/5.0 (Windows NT 10.0; Win64; x64) AppleWebKit/537.36 (KHTML, like Gecko) Chrome/131.0.0.0 Safari/537.36" version="24.8.6">
  <diagram name="Страница-1" id="EfbVIbMxLSVwzUg1GT6g">
    <mxGraphModel grid="1" page="1" gridSize="10" guides="1" tooltips="1" connect="1" arrows="1" fold="1" pageScale="1" pageWidth="827" pageHeight="1169" math="0" shadow="0">
      <root>
        <mxCell id="0" />
        <mxCell id="1" parent="0" />
        <mxCell id="_5rseYd26OTaHgnTubhx-1" value="User" style="shape=table;startSize=30;container=1;collapsible=1;childLayout=tableLayout;fixedRows=1;rowLines=0;fontStyle=1;align=center;resizeLast=1;html=1;" vertex="1" parent="1">
          <mxGeometry x="-80" y="275" width="180" height="170" as="geometry">
            <mxRectangle x="50" y="100" width="70" height="30" as="alternateBounds" />
          </mxGeometry>
        </mxCell>
        <mxCell id="_5rseYd26OTaHgnTubhx-2" value="" style="shape=tableRow;horizontal=0;startSize=0;swimlaneHead=0;swimlaneBody=0;fillColor=none;collapsible=0;dropTarget=0;points=[[0,0.5],[1,0.5]];portConstraint=eastwest;top=0;left=0;right=0;bottom=1;" vertex="1" parent="_5rseYd26OTaHgnTubhx-1">
          <mxGeometry y="30" width="180" height="20" as="geometry" />
        </mxCell>
        <mxCell id="_5rseYd26OTaHgnTubhx-3" value="&lt;u&gt;PK, INT&lt;/u&gt;" style="shape=partialRectangle;connectable=0;fillColor=none;top=0;left=0;bottom=0;right=0;fontStyle=1;overflow=hidden;whiteSpace=wrap;html=1;" vertex="1" parent="_5rseYd26OTaHgnTubhx-2">
          <mxGeometry width="70" height="20" as="geometry">
            <mxRectangle width="70" height="20" as="alternateBounds" />
          </mxGeometry>
        </mxCell>
        <mxCell id="_5rseYd26OTaHgnTubhx-4" value="UserId" style="shape=partialRectangle;connectable=0;fillColor=none;top=0;left=0;bottom=0;right=0;align=left;spacingLeft=6;fontStyle=5;overflow=hidden;whiteSpace=wrap;html=1;" vertex="1" parent="_5rseYd26OTaHgnTubhx-2">
          <mxGeometry x="70" width="110" height="20" as="geometry">
            <mxRectangle width="110" height="20" as="alternateBounds" />
          </mxGeometry>
        </mxCell>
        <mxCell id="_5rseYd26OTaHgnTubhx-5" value="" style="shape=tableRow;horizontal=0;startSize=0;swimlaneHead=0;swimlaneBody=0;fillColor=none;collapsible=0;dropTarget=0;points=[[0,0.5],[1,0.5]];portConstraint=eastwest;top=0;left=0;right=0;bottom=0;" vertex="1" parent="_5rseYd26OTaHgnTubhx-1">
          <mxGeometry y="50" width="180" height="30" as="geometry" />
        </mxCell>
        <mxCell id="_5rseYd26OTaHgnTubhx-6" value="VARCHAR" style="shape=partialRectangle;connectable=0;fillColor=none;top=0;left=0;bottom=0;right=0;editable=1;overflow=hidden;whiteSpace=wrap;html=1;" vertex="1" parent="_5rseYd26OTaHgnTubhx-5">
          <mxGeometry width="70" height="30" as="geometry">
            <mxRectangle width="70" height="30" as="alternateBounds" />
          </mxGeometry>
        </mxCell>
        <mxCell id="_5rseYd26OTaHgnTubhx-7" value="Username" style="shape=partialRectangle;connectable=0;fillColor=none;top=0;left=0;bottom=0;right=0;align=left;spacingLeft=6;overflow=hidden;whiteSpace=wrap;html=1;" vertex="1" parent="_5rseYd26OTaHgnTubhx-5">
          <mxGeometry x="70" width="110" height="30" as="geometry">
            <mxRectangle width="110" height="30" as="alternateBounds" />
          </mxGeometry>
        </mxCell>
        <mxCell id="_5rseYd26OTaHgnTubhx-8" value="" style="shape=tableRow;horizontal=0;startSize=0;swimlaneHead=0;swimlaneBody=0;fillColor=none;collapsible=0;dropTarget=0;points=[[0,0.5],[1,0.5]];portConstraint=eastwest;top=0;left=0;right=0;bottom=0;" vertex="1" parent="_5rseYd26OTaHgnTubhx-1">
          <mxGeometry y="80" width="180" height="30" as="geometry" />
        </mxCell>
        <mxCell id="_5rseYd26OTaHgnTubhx-9" value="VARCHAR" style="shape=partialRectangle;connectable=0;fillColor=none;top=0;left=0;bottom=0;right=0;editable=1;overflow=hidden;whiteSpace=wrap;html=1;" vertex="1" parent="_5rseYd26OTaHgnTubhx-8">
          <mxGeometry width="70" height="30" as="geometry">
            <mxRectangle width="70" height="30" as="alternateBounds" />
          </mxGeometry>
        </mxCell>
        <mxCell id="_5rseYd26OTaHgnTubhx-10" value="Email" style="shape=partialRectangle;connectable=0;fillColor=none;top=0;left=0;bottom=0;right=0;align=left;spacingLeft=6;overflow=hidden;whiteSpace=wrap;html=1;" vertex="1" parent="_5rseYd26OTaHgnTubhx-8">
          <mxGeometry x="70" width="110" height="30" as="geometry">
            <mxRectangle width="110" height="30" as="alternateBounds" />
          </mxGeometry>
        </mxCell>
        <mxCell id="_5rseYd26OTaHgnTubhx-11" value="" style="shape=tableRow;horizontal=0;startSize=0;swimlaneHead=0;swimlaneBody=0;fillColor=none;collapsible=0;dropTarget=0;points=[[0,0.5],[1,0.5]];portConstraint=eastwest;top=0;left=0;right=0;bottom=0;" vertex="1" parent="_5rseYd26OTaHgnTubhx-1">
          <mxGeometry y="110" width="180" height="40" as="geometry" />
        </mxCell>
        <mxCell id="_5rseYd26OTaHgnTubhx-12" value="DATE" style="shape=partialRectangle;connectable=0;fillColor=none;top=0;left=0;bottom=0;right=0;editable=1;overflow=hidden;whiteSpace=wrap;html=1;" vertex="1" parent="_5rseYd26OTaHgnTubhx-11">
          <mxGeometry width="70" height="40" as="geometry">
            <mxRectangle width="70" height="40" as="alternateBounds" />
          </mxGeometry>
        </mxCell>
        <mxCell id="_5rseYd26OTaHgnTubhx-13" value="DateCreated" style="shape=partialRectangle;connectable=0;fillColor=none;top=0;left=0;bottom=0;right=0;align=left;spacingLeft=6;overflow=hidden;whiteSpace=wrap;html=1;" vertex="1" parent="_5rseYd26OTaHgnTubhx-11">
          <mxGeometry x="70" width="110" height="40" as="geometry">
            <mxRectangle width="110" height="40" as="alternateBounds" />
          </mxGeometry>
        </mxCell>
        <mxCell id="_5rseYd26OTaHgnTubhx-15" value="" style="shape=tableRow;horizontal=0;startSize=0;swimlaneHead=0;swimlaneBody=0;fillColor=none;collapsible=0;dropTarget=0;points=[[0,0.5],[1,0.5]];portConstraint=eastwest;top=0;left=0;right=0;bottom=0;" vertex="1" parent="_5rseYd26OTaHgnTubhx-1">
          <mxGeometry y="150" width="180" height="20" as="geometry" />
        </mxCell>
        <mxCell id="_5rseYd26OTaHgnTubhx-16" value="VARCHAR" style="shape=partialRectangle;connectable=0;fillColor=none;top=0;left=0;bottom=0;right=0;editable=1;overflow=hidden;" vertex="1" parent="_5rseYd26OTaHgnTubhx-15">
          <mxGeometry width="70" height="20" as="geometry">
            <mxRectangle width="70" height="20" as="alternateBounds" />
          </mxGeometry>
        </mxCell>
        <mxCell id="_5rseYd26OTaHgnTubhx-17" value="Status" style="shape=partialRectangle;connectable=0;fillColor=none;top=0;left=0;bottom=0;right=0;align=left;spacingLeft=6;overflow=hidden;" vertex="1" parent="_5rseYd26OTaHgnTubhx-15">
          <mxGeometry x="70" width="110" height="20" as="geometry">
            <mxRectangle width="110" height="20" as="alternateBounds" />
          </mxGeometry>
        </mxCell>
        <mxCell id="_5rseYd26OTaHgnTubhx-34" value="Video" style="shape=table;startSize=30;container=1;collapsible=1;childLayout=tableLayout;fixedRows=1;rowLines=0;fontStyle=1;align=center;resizeLast=1;html=1;" vertex="1" parent="1">
          <mxGeometry x="520" y="30" width="180" height="210" as="geometry" />
        </mxCell>
        <mxCell id="_5rseYd26OTaHgnTubhx-35" value="" style="shape=tableRow;horizontal=0;startSize=0;swimlaneHead=0;swimlaneBody=0;fillColor=none;collapsible=0;dropTarget=0;points=[[0,0.5],[1,0.5]];portConstraint=eastwest;top=0;left=0;right=0;bottom=1;" vertex="1" parent="_5rseYd26OTaHgnTubhx-34">
          <mxGeometry y="30" width="180" height="30" as="geometry" />
        </mxCell>
        <mxCell id="_5rseYd26OTaHgnTubhx-36" value="&lt;u&gt;PK, INT&lt;/u&gt;" style="shape=partialRectangle;connectable=0;fillColor=none;top=0;left=0;bottom=0;right=0;fontStyle=1;overflow=hidden;whiteSpace=wrap;html=1;" vertex="1" parent="_5rseYd26OTaHgnTubhx-35">
          <mxGeometry width="70" height="30" as="geometry">
            <mxRectangle width="70" height="30" as="alternateBounds" />
          </mxGeometry>
        </mxCell>
        <mxCell id="_5rseYd26OTaHgnTubhx-37" value="VideoId" style="shape=partialRectangle;connectable=0;fillColor=none;top=0;left=0;bottom=0;right=0;align=left;spacingLeft=6;fontStyle=5;overflow=hidden;whiteSpace=wrap;html=1;" vertex="1" parent="_5rseYd26OTaHgnTubhx-35">
          <mxGeometry x="70" width="110" height="30" as="geometry">
            <mxRectangle width="110" height="30" as="alternateBounds" />
          </mxGeometry>
        </mxCell>
        <mxCell id="_5rseYd26OTaHgnTubhx-38" value="" style="shape=tableRow;horizontal=0;startSize=0;swimlaneHead=0;swimlaneBody=0;fillColor=none;collapsible=0;dropTarget=0;points=[[0,0.5],[1,0.5]];portConstraint=eastwest;top=0;left=0;right=0;bottom=0;" vertex="1" parent="_5rseYd26OTaHgnTubhx-34">
          <mxGeometry y="60" width="180" height="30" as="geometry" />
        </mxCell>
        <mxCell id="_5rseYd26OTaHgnTubhx-39" value="VARCHAR" style="shape=partialRectangle;connectable=0;fillColor=none;top=0;left=0;bottom=0;right=0;editable=1;overflow=hidden;whiteSpace=wrap;html=1;" vertex="1" parent="_5rseYd26OTaHgnTubhx-38">
          <mxGeometry width="70" height="30" as="geometry">
            <mxRectangle width="70" height="30" as="alternateBounds" />
          </mxGeometry>
        </mxCell>
        <mxCell id="_5rseYd26OTaHgnTubhx-40" value="Title" style="shape=partialRectangle;connectable=0;fillColor=none;top=0;left=0;bottom=0;right=0;align=left;spacingLeft=6;overflow=hidden;whiteSpace=wrap;html=1;" vertex="1" parent="_5rseYd26OTaHgnTubhx-38">
          <mxGeometry x="70" width="110" height="30" as="geometry">
            <mxRectangle width="110" height="30" as="alternateBounds" />
          </mxGeometry>
        </mxCell>
        <mxCell id="_5rseYd26OTaHgnTubhx-41" value="" style="shape=tableRow;horizontal=0;startSize=0;swimlaneHead=0;swimlaneBody=0;fillColor=none;collapsible=0;dropTarget=0;points=[[0,0.5],[1,0.5]];portConstraint=eastwest;top=0;left=0;right=0;bottom=0;" vertex="1" parent="_5rseYd26OTaHgnTubhx-34">
          <mxGeometry y="90" width="180" height="30" as="geometry" />
        </mxCell>
        <mxCell id="_5rseYd26OTaHgnTubhx-42" value="TEXT" style="shape=partialRectangle;connectable=0;fillColor=none;top=0;left=0;bottom=0;right=0;editable=1;overflow=hidden;whiteSpace=wrap;html=1;" vertex="1" parent="_5rseYd26OTaHgnTubhx-41">
          <mxGeometry width="70" height="30" as="geometry">
            <mxRectangle width="70" height="30" as="alternateBounds" />
          </mxGeometry>
        </mxCell>
        <mxCell id="_5rseYd26OTaHgnTubhx-43" value="Description" style="shape=partialRectangle;connectable=0;fillColor=none;top=0;left=0;bottom=0;right=0;align=left;spacingLeft=6;overflow=hidden;whiteSpace=wrap;html=1;" vertex="1" parent="_5rseYd26OTaHgnTubhx-41">
          <mxGeometry x="70" width="110" height="30" as="geometry">
            <mxRectangle width="110" height="30" as="alternateBounds" />
          </mxGeometry>
        </mxCell>
        <mxCell id="_5rseYd26OTaHgnTubhx-44" value="" style="shape=tableRow;horizontal=0;startSize=0;swimlaneHead=0;swimlaneBody=0;fillColor=none;collapsible=0;dropTarget=0;points=[[0,0.5],[1,0.5]];portConstraint=eastwest;top=0;left=0;right=0;bottom=0;" vertex="1" parent="_5rseYd26OTaHgnTubhx-34">
          <mxGeometry y="120" width="180" height="30" as="geometry" />
        </mxCell>
        <mxCell id="_5rseYd26OTaHgnTubhx-45" value="DATE" style="shape=partialRectangle;connectable=0;fillColor=none;top=0;left=0;bottom=0;right=0;editable=1;overflow=hidden;whiteSpace=wrap;html=1;" vertex="1" parent="_5rseYd26OTaHgnTubhx-44">
          <mxGeometry width="70" height="30" as="geometry">
            <mxRectangle width="70" height="30" as="alternateBounds" />
          </mxGeometry>
        </mxCell>
        <mxCell id="_5rseYd26OTaHgnTubhx-46" value="UploadDate" style="shape=partialRectangle;connectable=0;fillColor=none;top=0;left=0;bottom=0;right=0;align=left;spacingLeft=6;overflow=hidden;whiteSpace=wrap;html=1;" vertex="1" parent="_5rseYd26OTaHgnTubhx-44">
          <mxGeometry x="70" width="110" height="30" as="geometry">
            <mxRectangle width="110" height="30" as="alternateBounds" />
          </mxGeometry>
        </mxCell>
        <mxCell id="_5rseYd26OTaHgnTubhx-47" value="" style="shape=tableRow;horizontal=0;startSize=0;swimlaneHead=0;swimlaneBody=0;fillColor=none;collapsible=0;dropTarget=0;points=[[0,0.5],[1,0.5]];portConstraint=eastwest;top=0;left=0;right=0;bottom=0;" vertex="1" parent="_5rseYd26OTaHgnTubhx-34">
          <mxGeometry y="150" width="180" height="30" as="geometry" />
        </mxCell>
        <mxCell id="_5rseYd26OTaHgnTubhx-48" value="INT" style="shape=partialRectangle;connectable=0;fillColor=none;top=0;left=0;bottom=0;right=0;editable=1;overflow=hidden;" vertex="1" parent="_5rseYd26OTaHgnTubhx-47">
          <mxGeometry width="70" height="30" as="geometry">
            <mxRectangle width="70" height="30" as="alternateBounds" />
          </mxGeometry>
        </mxCell>
        <mxCell id="_5rseYd26OTaHgnTubhx-49" value="Views" style="shape=partialRectangle;connectable=0;fillColor=none;top=0;left=0;bottom=0;right=0;align=left;spacingLeft=6;overflow=hidden;" vertex="1" parent="_5rseYd26OTaHgnTubhx-47">
          <mxGeometry x="70" width="110" height="30" as="geometry">
            <mxRectangle width="110" height="30" as="alternateBounds" />
          </mxGeometry>
        </mxCell>
        <mxCell id="_5rseYd26OTaHgnTubhx-50" value="" style="shape=tableRow;horizontal=0;startSize=0;swimlaneHead=0;swimlaneBody=0;fillColor=none;collapsible=0;dropTarget=0;points=[[0,0.5],[1,0.5]];portConstraint=eastwest;top=0;left=0;right=0;bottom=0;" vertex="1" parent="_5rseYd26OTaHgnTubhx-34">
          <mxGeometry y="180" width="180" height="30" as="geometry" />
        </mxCell>
        <mxCell id="_5rseYd26OTaHgnTubhx-51" value="FK, INT" style="shape=partialRectangle;connectable=0;fillColor=none;top=0;left=0;bottom=0;right=0;fontStyle=0;overflow=hidden;whiteSpace=wrap;html=1;" vertex="1" parent="_5rseYd26OTaHgnTubhx-50">
          <mxGeometry width="70" height="30" as="geometry">
            <mxRectangle width="70" height="30" as="alternateBounds" />
          </mxGeometry>
        </mxCell>
        <mxCell id="_5rseYd26OTaHgnTubhx-52" value="UserId" style="shape=partialRectangle;connectable=0;fillColor=none;top=0;left=0;bottom=0;right=0;align=left;spacingLeft=6;fontStyle=0;overflow=hidden;whiteSpace=wrap;html=1;" vertex="1" parent="_5rseYd26OTaHgnTubhx-50">
          <mxGeometry x="70" width="110" height="30" as="geometry">
            <mxRectangle width="110" height="30" as="alternateBounds" />
          </mxGeometry>
        </mxCell>
        <mxCell id="_5rseYd26OTaHgnTubhx-53" value="Coments" style="shape=table;startSize=30;container=1;collapsible=1;childLayout=tableLayout;fixedRows=1;rowLines=0;fontStyle=1;align=center;resizeLast=1;html=1;" vertex="1" parent="1">
          <mxGeometry x="500" y="415" width="180" height="170" as="geometry" />
        </mxCell>
        <mxCell id="_5rseYd26OTaHgnTubhx-54" value="" style="shape=tableRow;horizontal=0;startSize=0;swimlaneHead=0;swimlaneBody=0;fillColor=none;collapsible=0;dropTarget=0;points=[[0,0.5],[1,0.5]];portConstraint=eastwest;top=0;left=0;right=0;bottom=1;" vertex="1" parent="_5rseYd26OTaHgnTubhx-53">
          <mxGeometry y="30" width="180" height="30" as="geometry" />
        </mxCell>
        <mxCell id="_5rseYd26OTaHgnTubhx-55" value="PK, INT" style="shape=partialRectangle;connectable=0;fillColor=none;top=0;left=0;bottom=0;right=0;fontStyle=1;overflow=hidden;whiteSpace=wrap;html=1;" vertex="1" parent="_5rseYd26OTaHgnTubhx-54">
          <mxGeometry width="70" height="30" as="geometry">
            <mxRectangle width="70" height="30" as="alternateBounds" />
          </mxGeometry>
        </mxCell>
        <mxCell id="_5rseYd26OTaHgnTubhx-56" value="ComentId" style="shape=partialRectangle;connectable=0;fillColor=none;top=0;left=0;bottom=0;right=0;align=left;spacingLeft=6;fontStyle=5;overflow=hidden;whiteSpace=wrap;html=1;" vertex="1" parent="_5rseYd26OTaHgnTubhx-54">
          <mxGeometry x="70" width="110" height="30" as="geometry">
            <mxRectangle width="110" height="30" as="alternateBounds" />
          </mxGeometry>
        </mxCell>
        <mxCell id="_5rseYd26OTaHgnTubhx-57" value="" style="shape=tableRow;horizontal=0;startSize=0;swimlaneHead=0;swimlaneBody=0;fillColor=none;collapsible=0;dropTarget=0;points=[[0,0.5],[1,0.5]];portConstraint=eastwest;top=0;left=0;right=0;bottom=0;" vertex="1" parent="_5rseYd26OTaHgnTubhx-53">
          <mxGeometry y="60" width="180" height="30" as="geometry" />
        </mxCell>
        <mxCell id="_5rseYd26OTaHgnTubhx-58" value="TEXT" style="shape=partialRectangle;connectable=0;fillColor=none;top=0;left=0;bottom=0;right=0;editable=1;overflow=hidden;whiteSpace=wrap;html=1;" vertex="1" parent="_5rseYd26OTaHgnTubhx-57">
          <mxGeometry width="70" height="30" as="geometry">
            <mxRectangle width="70" height="30" as="alternateBounds" />
          </mxGeometry>
        </mxCell>
        <mxCell id="_5rseYd26OTaHgnTubhx-59" value="Text" style="shape=partialRectangle;connectable=0;fillColor=none;top=0;left=0;bottom=0;right=0;align=left;spacingLeft=6;overflow=hidden;whiteSpace=wrap;html=1;" vertex="1" parent="_5rseYd26OTaHgnTubhx-57">
          <mxGeometry x="70" width="110" height="30" as="geometry">
            <mxRectangle width="110" height="30" as="alternateBounds" />
          </mxGeometry>
        </mxCell>
        <mxCell id="_5rseYd26OTaHgnTubhx-60" value="" style="shape=tableRow;horizontal=0;startSize=0;swimlaneHead=0;swimlaneBody=0;fillColor=none;collapsible=0;dropTarget=0;points=[[0,0.5],[1,0.5]];portConstraint=eastwest;top=0;left=0;right=0;bottom=0;" vertex="1" parent="_5rseYd26OTaHgnTubhx-53">
          <mxGeometry y="90" width="180" height="20" as="geometry" />
        </mxCell>
        <mxCell id="_5rseYd26OTaHgnTubhx-61" value="DATE" style="shape=partialRectangle;connectable=0;fillColor=none;top=0;left=0;bottom=0;right=0;editable=1;overflow=hidden;whiteSpace=wrap;html=1;" vertex="1" parent="_5rseYd26OTaHgnTubhx-60">
          <mxGeometry width="70" height="20" as="geometry">
            <mxRectangle width="70" height="20" as="alternateBounds" />
          </mxGeometry>
        </mxCell>
        <mxCell id="_5rseYd26OTaHgnTubhx-62" value="DatePosted" style="shape=partialRectangle;connectable=0;fillColor=none;top=0;left=0;bottom=0;right=0;align=left;spacingLeft=6;overflow=hidden;whiteSpace=wrap;html=1;" vertex="1" parent="_5rseYd26OTaHgnTubhx-60">
          <mxGeometry x="70" width="110" height="20" as="geometry">
            <mxRectangle width="110" height="20" as="alternateBounds" />
          </mxGeometry>
        </mxCell>
        <mxCell id="_5rseYd26OTaHgnTubhx-63" value="" style="shape=tableRow;horizontal=0;startSize=0;swimlaneHead=0;swimlaneBody=0;fillColor=none;collapsible=0;dropTarget=0;points=[[0,0.5],[1,0.5]];portConstraint=eastwest;top=0;left=0;right=0;bottom=0;" vertex="1" parent="_5rseYd26OTaHgnTubhx-53">
          <mxGeometry y="110" width="180" height="30" as="geometry" />
        </mxCell>
        <mxCell id="_5rseYd26OTaHgnTubhx-64" value="FK, INT" style="shape=partialRectangle;connectable=0;fillColor=none;top=0;left=0;bottom=0;right=0;editable=1;overflow=hidden;whiteSpace=wrap;html=1;" vertex="1" parent="_5rseYd26OTaHgnTubhx-63">
          <mxGeometry width="70" height="30" as="geometry">
            <mxRectangle width="70" height="30" as="alternateBounds" />
          </mxGeometry>
        </mxCell>
        <mxCell id="_5rseYd26OTaHgnTubhx-65" value="UserId" style="shape=partialRectangle;connectable=0;fillColor=none;top=0;left=0;bottom=0;right=0;align=left;spacingLeft=6;overflow=hidden;whiteSpace=wrap;html=1;" vertex="1" parent="_5rseYd26OTaHgnTubhx-63">
          <mxGeometry x="70" width="110" height="30" as="geometry">
            <mxRectangle width="110" height="30" as="alternateBounds" />
          </mxGeometry>
        </mxCell>
        <mxCell id="_5rseYd26OTaHgnTubhx-66" value="" style="shape=tableRow;horizontal=0;startSize=0;swimlaneHead=0;swimlaneBody=0;fillColor=none;collapsible=0;dropTarget=0;points=[[0,0.5],[1,0.5]];portConstraint=eastwest;top=0;left=0;right=0;bottom=0;" vertex="1" parent="_5rseYd26OTaHgnTubhx-53">
          <mxGeometry y="140" width="180" height="30" as="geometry" />
        </mxCell>
        <mxCell id="_5rseYd26OTaHgnTubhx-67" value="FK, INT" style="shape=partialRectangle;connectable=0;fillColor=none;top=0;left=0;bottom=0;right=0;fontStyle=0;overflow=hidden;whiteSpace=wrap;html=1;" vertex="1" parent="_5rseYd26OTaHgnTubhx-66">
          <mxGeometry width="70" height="30" as="geometry">
            <mxRectangle width="70" height="30" as="alternateBounds" />
          </mxGeometry>
        </mxCell>
        <mxCell id="_5rseYd26OTaHgnTubhx-68" value="VideoId" style="shape=partialRectangle;connectable=0;fillColor=none;top=0;left=0;bottom=0;right=0;align=left;spacingLeft=6;fontStyle=0;overflow=hidden;whiteSpace=wrap;html=1;" vertex="1" parent="_5rseYd26OTaHgnTubhx-66">
          <mxGeometry x="70" width="110" height="30" as="geometry">
            <mxRectangle width="110" height="30" as="alternateBounds" />
          </mxGeometry>
        </mxCell>
        <mxCell id="_5rseYd26OTaHgnTubhx-69" value="Channel" style="shape=table;startSize=30;container=1;collapsible=1;childLayout=tableLayout;fixedRows=1;rowLines=0;fontStyle=1;align=center;resizeLast=1;html=1;" vertex="1" parent="1">
          <mxGeometry x="-80" y="600" width="180" height="155" as="geometry" />
        </mxCell>
        <mxCell id="_5rseYd26OTaHgnTubhx-70" value="" style="shape=tableRow;horizontal=0;startSize=0;swimlaneHead=0;swimlaneBody=0;fillColor=none;collapsible=0;dropTarget=0;points=[[0,0.5],[1,0.5]];portConstraint=eastwest;top=0;left=0;right=0;bottom=1;" vertex="1" parent="_5rseYd26OTaHgnTubhx-69">
          <mxGeometry y="30" width="180" height="30" as="geometry" />
        </mxCell>
        <mxCell id="_5rseYd26OTaHgnTubhx-71" value="PK, INT" style="shape=partialRectangle;connectable=0;fillColor=none;top=0;left=0;bottom=0;right=0;fontStyle=1;overflow=hidden;whiteSpace=wrap;html=1;" vertex="1" parent="_5rseYd26OTaHgnTubhx-70">
          <mxGeometry width="75" height="30" as="geometry">
            <mxRectangle width="75" height="30" as="alternateBounds" />
          </mxGeometry>
        </mxCell>
        <mxCell id="_5rseYd26OTaHgnTubhx-72" value="ChannelId" style="shape=partialRectangle;connectable=0;fillColor=none;top=0;left=0;bottom=0;right=0;align=left;spacingLeft=6;fontStyle=5;overflow=hidden;whiteSpace=wrap;html=1;" vertex="1" parent="_5rseYd26OTaHgnTubhx-70">
          <mxGeometry x="75" width="105" height="30" as="geometry">
            <mxRectangle width="105" height="30" as="alternateBounds" />
          </mxGeometry>
        </mxCell>
        <mxCell id="_5rseYd26OTaHgnTubhx-73" value="" style="shape=tableRow;horizontal=0;startSize=0;swimlaneHead=0;swimlaneBody=0;fillColor=none;collapsible=0;dropTarget=0;points=[[0,0.5],[1,0.5]];portConstraint=eastwest;top=0;left=0;right=0;bottom=0;" vertex="1" parent="_5rseYd26OTaHgnTubhx-69">
          <mxGeometry y="60" width="180" height="20" as="geometry" />
        </mxCell>
        <mxCell id="_5rseYd26OTaHgnTubhx-74" value="VARCHAR" style="shape=partialRectangle;connectable=0;fillColor=none;top=0;left=0;bottom=0;right=0;editable=1;overflow=hidden;whiteSpace=wrap;html=1;" vertex="1" parent="_5rseYd26OTaHgnTubhx-73">
          <mxGeometry width="75" height="20" as="geometry">
            <mxRectangle width="75" height="20" as="alternateBounds" />
          </mxGeometry>
        </mxCell>
        <mxCell id="_5rseYd26OTaHgnTubhx-75" value="Name" style="shape=partialRectangle;connectable=0;fillColor=none;top=0;left=0;bottom=0;right=0;align=left;spacingLeft=6;overflow=hidden;whiteSpace=wrap;html=1;" vertex="1" parent="_5rseYd26OTaHgnTubhx-73">
          <mxGeometry x="75" width="105" height="20" as="geometry">
            <mxRectangle width="105" height="20" as="alternateBounds" />
          </mxGeometry>
        </mxCell>
        <mxCell id="_5rseYd26OTaHgnTubhx-76" value="" style="shape=tableRow;horizontal=0;startSize=0;swimlaneHead=0;swimlaneBody=0;fillColor=none;collapsible=0;dropTarget=0;points=[[0,0.5],[1,0.5]];portConstraint=eastwest;top=0;left=0;right=0;bottom=0;" vertex="1" parent="_5rseYd26OTaHgnTubhx-69">
          <mxGeometry y="80" width="180" height="55" as="geometry" />
        </mxCell>
        <mxCell id="_5rseYd26OTaHgnTubhx-77" value="TEXT" style="shape=partialRectangle;connectable=0;fillColor=none;top=0;left=0;bottom=0;right=0;editable=1;overflow=hidden;whiteSpace=wrap;html=1;" vertex="1" parent="_5rseYd26OTaHgnTubhx-76">
          <mxGeometry width="75" height="55" as="geometry">
            <mxRectangle width="75" height="55" as="alternateBounds" />
          </mxGeometry>
        </mxCell>
        <mxCell id="_5rseYd26OTaHgnTubhx-78" value="Description" style="shape=partialRectangle;connectable=0;fillColor=none;top=0;left=0;bottom=0;right=0;align=left;spacingLeft=6;overflow=hidden;whiteSpace=wrap;html=1;" vertex="1" parent="_5rseYd26OTaHgnTubhx-76">
          <mxGeometry x="75" width="105" height="55" as="geometry">
            <mxRectangle width="105" height="55" as="alternateBounds" />
          </mxGeometry>
        </mxCell>
        <mxCell id="_5rseYd26OTaHgnTubhx-79" value="" style="shape=tableRow;horizontal=0;startSize=0;swimlaneHead=0;swimlaneBody=0;fillColor=none;collapsible=0;dropTarget=0;points=[[0,0.5],[1,0.5]];portConstraint=eastwest;top=0;left=0;right=0;bottom=0;" vertex="1" parent="_5rseYd26OTaHgnTubhx-69">
          <mxGeometry y="135" width="180" height="20" as="geometry" />
        </mxCell>
        <mxCell id="_5rseYd26OTaHgnTubhx-80" value="FK, INT" style="shape=partialRectangle;connectable=0;fillColor=none;top=0;left=0;bottom=0;right=0;editable=1;overflow=hidden;whiteSpace=wrap;html=1;" vertex="1" parent="_5rseYd26OTaHgnTubhx-79">
          <mxGeometry width="75" height="20" as="geometry">
            <mxRectangle width="75" height="20" as="alternateBounds" />
          </mxGeometry>
        </mxCell>
        <mxCell id="_5rseYd26OTaHgnTubhx-81" value="UserId" style="shape=partialRectangle;connectable=0;fillColor=none;top=0;left=0;bottom=0;right=0;align=left;spacingLeft=6;overflow=hidden;whiteSpace=wrap;html=1;" vertex="1" parent="_5rseYd26OTaHgnTubhx-79">
          <mxGeometry x="75" width="105" height="20" as="geometry">
            <mxRectangle width="105" height="20" as="alternateBounds" />
          </mxGeometry>
        </mxCell>
        <mxCell id="_5rseYd26OTaHgnTubhx-82" value="Category" style="shape=table;startSize=30;container=1;collapsible=1;childLayout=tableLayout;fixedRows=1;rowLines=0;fontStyle=1;align=center;resizeLast=1;html=1;" vertex="1" parent="1">
          <mxGeometry x="20" y="30" width="180" height="120" as="geometry" />
        </mxCell>
        <mxCell id="_5rseYd26OTaHgnTubhx-83" value="" style="shape=tableRow;horizontal=0;startSize=0;swimlaneHead=0;swimlaneBody=0;fillColor=none;collapsible=0;dropTarget=0;points=[[0,0.5],[1,0.5]];portConstraint=eastwest;top=0;left=0;right=0;bottom=1;" vertex="1" parent="_5rseYd26OTaHgnTubhx-82">
          <mxGeometry y="30" width="180" height="30" as="geometry" />
        </mxCell>
        <mxCell id="_5rseYd26OTaHgnTubhx-84" value="PK, INT" style="shape=partialRectangle;connectable=0;fillColor=none;top=0;left=0;bottom=0;right=0;fontStyle=1;overflow=hidden;whiteSpace=wrap;html=1;" vertex="1" parent="_5rseYd26OTaHgnTubhx-83">
          <mxGeometry width="70" height="30" as="geometry">
            <mxRectangle width="70" height="30" as="alternateBounds" />
          </mxGeometry>
        </mxCell>
        <mxCell id="_5rseYd26OTaHgnTubhx-85" value="CategoryId" style="shape=partialRectangle;connectable=0;fillColor=none;top=0;left=0;bottom=0;right=0;align=left;spacingLeft=6;fontStyle=5;overflow=hidden;whiteSpace=wrap;html=1;" vertex="1" parent="_5rseYd26OTaHgnTubhx-83">
          <mxGeometry x="70" width="110" height="30" as="geometry">
            <mxRectangle width="110" height="30" as="alternateBounds" />
          </mxGeometry>
        </mxCell>
        <mxCell id="_5rseYd26OTaHgnTubhx-86" value="" style="shape=tableRow;horizontal=0;startSize=0;swimlaneHead=0;swimlaneBody=0;fillColor=none;collapsible=0;dropTarget=0;points=[[0,0.5],[1,0.5]];portConstraint=eastwest;top=0;left=0;right=0;bottom=0;" vertex="1" parent="_5rseYd26OTaHgnTubhx-82">
          <mxGeometry y="60" width="180" height="30" as="geometry" />
        </mxCell>
        <mxCell id="_5rseYd26OTaHgnTubhx-87" value="VARCHAR" style="shape=partialRectangle;connectable=0;fillColor=none;top=0;left=0;bottom=0;right=0;editable=1;overflow=hidden;whiteSpace=wrap;html=1;" vertex="1" parent="_5rseYd26OTaHgnTubhx-86">
          <mxGeometry width="70" height="30" as="geometry">
            <mxRectangle width="70" height="30" as="alternateBounds" />
          </mxGeometry>
        </mxCell>
        <mxCell id="_5rseYd26OTaHgnTubhx-88" value="Name" style="shape=partialRectangle;connectable=0;fillColor=none;top=0;left=0;bottom=0;right=0;align=left;spacingLeft=6;overflow=hidden;whiteSpace=wrap;html=1;" vertex="1" parent="_5rseYd26OTaHgnTubhx-86">
          <mxGeometry x="70" width="110" height="30" as="geometry">
            <mxRectangle width="110" height="30" as="alternateBounds" />
          </mxGeometry>
        </mxCell>
        <mxCell id="_5rseYd26OTaHgnTubhx-89" value="" style="shape=tableRow;horizontal=0;startSize=0;swimlaneHead=0;swimlaneBody=0;fillColor=none;collapsible=0;dropTarget=0;points=[[0,0.5],[1,0.5]];portConstraint=eastwest;top=0;left=0;right=0;bottom=0;" vertex="1" parent="_5rseYd26OTaHgnTubhx-82">
          <mxGeometry y="90" width="180" height="30" as="geometry" />
        </mxCell>
        <mxCell id="_5rseYd26OTaHgnTubhx-90" value="TEXT" style="shape=partialRectangle;connectable=0;fillColor=none;top=0;left=0;bottom=0;right=0;editable=1;overflow=hidden;whiteSpace=wrap;html=1;" vertex="1" parent="_5rseYd26OTaHgnTubhx-89">
          <mxGeometry width="70" height="30" as="geometry">
            <mxRectangle width="70" height="30" as="alternateBounds" />
          </mxGeometry>
        </mxCell>
        <mxCell id="_5rseYd26OTaHgnTubhx-91" value="Description" style="shape=partialRectangle;connectable=0;fillColor=none;top=0;left=0;bottom=0;right=0;align=left;spacingLeft=6;overflow=hidden;whiteSpace=wrap;html=1;" vertex="1" parent="_5rseYd26OTaHgnTubhx-89">
          <mxGeometry x="70" width="110" height="30" as="geometry">
            <mxRectangle width="110" height="30" as="alternateBounds" />
          </mxGeometry>
        </mxCell>
        <mxCell id="_5rseYd26OTaHgnTubhx-95" value="Subscription" style="shape=table;startSize=30;container=1;collapsible=1;childLayout=tableLayout;fixedRows=1;rowLines=0;fontStyle=1;align=center;resizeLast=1;html=1;" vertex="1" parent="1">
          <mxGeometry x="420" y="610" width="180" height="120" as="geometry" />
        </mxCell>
        <mxCell id="_5rseYd26OTaHgnTubhx-96" value="" style="shape=tableRow;horizontal=0;startSize=0;swimlaneHead=0;swimlaneBody=0;fillColor=none;collapsible=0;dropTarget=0;points=[[0,0.5],[1,0.5]];portConstraint=eastwest;top=0;left=0;right=0;bottom=1;" vertex="1" parent="_5rseYd26OTaHgnTubhx-95">
          <mxGeometry y="30" width="180" height="30" as="geometry" />
        </mxCell>
        <mxCell id="_5rseYd26OTaHgnTubhx-97" value="PK, INT" style="shape=partialRectangle;connectable=0;fillColor=none;top=0;left=0;bottom=0;right=0;fontStyle=1;overflow=hidden;whiteSpace=wrap;html=1;" vertex="1" parent="_5rseYd26OTaHgnTubhx-96">
          <mxGeometry width="60" height="30" as="geometry">
            <mxRectangle width="60" height="30" as="alternateBounds" />
          </mxGeometry>
        </mxCell>
        <mxCell id="_5rseYd26OTaHgnTubhx-98" value="SubscriptionId" style="shape=partialRectangle;connectable=0;fillColor=none;top=0;left=0;bottom=0;right=0;align=left;spacingLeft=6;fontStyle=5;overflow=hidden;whiteSpace=wrap;html=1;" vertex="1" parent="_5rseYd26OTaHgnTubhx-96">
          <mxGeometry x="60" width="120" height="30" as="geometry">
            <mxRectangle width="120" height="30" as="alternateBounds" />
          </mxGeometry>
        </mxCell>
        <mxCell id="_5rseYd26OTaHgnTubhx-99" value="" style="shape=tableRow;horizontal=0;startSize=0;swimlaneHead=0;swimlaneBody=0;fillColor=none;collapsible=0;dropTarget=0;points=[[0,0.5],[1,0.5]];portConstraint=eastwest;top=0;left=0;right=0;bottom=0;" vertex="1" parent="_5rseYd26OTaHgnTubhx-95">
          <mxGeometry y="60" width="180" height="30" as="geometry" />
        </mxCell>
        <mxCell id="_5rseYd26OTaHgnTubhx-100" value="FK, INT" style="shape=partialRectangle;connectable=0;fillColor=none;top=0;left=0;bottom=0;right=0;editable=1;overflow=hidden;whiteSpace=wrap;html=1;" vertex="1" parent="_5rseYd26OTaHgnTubhx-99">
          <mxGeometry width="60" height="30" as="geometry">
            <mxRectangle width="60" height="30" as="alternateBounds" />
          </mxGeometry>
        </mxCell>
        <mxCell id="_5rseYd26OTaHgnTubhx-101" value="SubscribedUserId" style="shape=partialRectangle;connectable=0;fillColor=none;top=0;left=0;bottom=0;right=0;align=left;spacingLeft=6;overflow=hidden;whiteSpace=wrap;html=1;" vertex="1" parent="_5rseYd26OTaHgnTubhx-99">
          <mxGeometry x="60" width="120" height="30" as="geometry">
            <mxRectangle width="120" height="30" as="alternateBounds" />
          </mxGeometry>
        </mxCell>
        <mxCell id="_5rseYd26OTaHgnTubhx-102" value="" style="shape=tableRow;horizontal=0;startSize=0;swimlaneHead=0;swimlaneBody=0;fillColor=none;collapsible=0;dropTarget=0;points=[[0,0.5],[1,0.5]];portConstraint=eastwest;top=0;left=0;right=0;bottom=0;" vertex="1" parent="_5rseYd26OTaHgnTubhx-95">
          <mxGeometry y="90" width="180" height="30" as="geometry" />
        </mxCell>
        <mxCell id="_5rseYd26OTaHgnTubhx-103" value="FK, INT" style="shape=partialRectangle;connectable=0;fillColor=none;top=0;left=0;bottom=0;right=0;editable=1;overflow=hidden;whiteSpace=wrap;html=1;" vertex="1" parent="_5rseYd26OTaHgnTubhx-102">
          <mxGeometry width="60" height="30" as="geometry">
            <mxRectangle width="60" height="30" as="alternateBounds" />
          </mxGeometry>
        </mxCell>
        <mxCell id="_5rseYd26OTaHgnTubhx-104" value="ChanelId" style="shape=partialRectangle;connectable=0;fillColor=none;top=0;left=0;bottom=0;right=0;align=left;spacingLeft=6;overflow=hidden;whiteSpace=wrap;html=1;" vertex="1" parent="_5rseYd26OTaHgnTubhx-102">
          <mxGeometry x="60" width="120" height="30" as="geometry">
            <mxRectangle width="120" height="30" as="alternateBounds" />
          </mxGeometry>
        </mxCell>
        <mxCell id="_5rseYd26OTaHgnTubhx-110" value="" style="edgeStyle=entityRelationEdgeStyle;fontSize=12;html=1;endArrow=ERoneToMany;rounded=0;exitX=1.011;exitY=0.067;exitDx=0;exitDy=0;entryX=0;entryY=0.5;entryDx=0;entryDy=0;exitPerimeter=0;" edge="1" parent="1" source="_5rseYd26OTaHgnTubhx-1" target="_5rseYd26OTaHgnTubhx-35">
          <mxGeometry width="100" height="100" relative="1" as="geometry">
            <mxPoint x="240" y="230" as="sourcePoint" />
            <mxPoint x="340" y="130" as="targetPoint" />
          </mxGeometry>
        </mxCell>
        <mxCell id="_5rseYd26OTaHgnTubhx-111" value="" style="edgeStyle=entityRelationEdgeStyle;fontSize=12;html=1;endArrow=ERoneToMany;rounded=0;exitX=0.994;exitY=1.033;exitDx=0;exitDy=0;entryX=-0.022;entryY=0.267;entryDx=0;entryDy=0;exitPerimeter=0;entryPerimeter=0;" edge="1" parent="1" source="_5rseYd26OTaHgnTubhx-5" target="_5rseYd26OTaHgnTubhx-63">
          <mxGeometry width="100" height="100" relative="1" as="geometry">
            <mxPoint x="220" y="382.5" as="sourcePoint" />
            <mxPoint x="510" y="367.5" as="targetPoint" />
          </mxGeometry>
        </mxCell>
        <mxCell id="_5rseYd26OTaHgnTubhx-121" value="" style="edgeStyle=entityRelationEdgeStyle;fontSize=12;html=1;endArrow=ERmandOne;startArrow=ERmandOne;rounded=0;entryX=0.544;entryY=0;entryDx=0;entryDy=0;entryPerimeter=0;exitX=0.494;exitY=0.95;exitDx=0;exitDy=0;exitPerimeter=0;" edge="1" parent="1" source="_5rseYd26OTaHgnTubhx-15" target="_5rseYd26OTaHgnTubhx-69">
          <mxGeometry width="100" height="100" relative="1" as="geometry">
            <mxPoint x="100" y="460" as="sourcePoint" />
            <mxPoint x="130" y="705" as="targetPoint" />
            <Array as="points">
              <mxPoint x="200" y="460" />
              <mxPoint x="150" y="550" />
              <mxPoint x="-290" y="550" />
              <mxPoint x="190" y="640" />
              <mxPoint x="-320" y="560" />
              <mxPoint x="-320" y="570" />
              <mxPoint x="-240" y="675" />
              <mxPoint x="-350" y="755" />
            </Array>
          </mxGeometry>
        </mxCell>
        <mxCell id="_5rseYd26OTaHgnTubhx-122" value="" style="edgeStyle=entityRelationEdgeStyle;fontSize=12;html=1;endArrow=ERoneToMany;rounded=0;exitX=1;exitY=0.5;exitDx=0;exitDy=0;entryX=0.006;entryY=0.183;entryDx=0;entryDy=0;entryPerimeter=0;" edge="1" parent="1" source="_5rseYd26OTaHgnTubhx-11" target="_5rseYd26OTaHgnTubhx-95">
          <mxGeometry width="100" height="100" relative="1" as="geometry">
            <mxPoint x="230" y="240" as="sourcePoint" />
            <mxPoint x="330" y="140" as="targetPoint" />
          </mxGeometry>
        </mxCell>
        <mxCell id="_5rseYd26OTaHgnTubhx-123" value="" style="edgeStyle=entityRelationEdgeStyle;fontSize=12;html=1;endArrow=ERoneToMany;rounded=0;exitX=0.983;exitY=0.733;exitDx=0;exitDy=0;exitPerimeter=0;entryX=0;entryY=0.5;entryDx=0;entryDy=0;" edge="1" parent="1" source="_5rseYd26OTaHgnTubhx-76" target="_5rseYd26OTaHgnTubhx-99">
          <mxGeometry width="100" height="100" relative="1" as="geometry">
            <mxPoint x="480" y="400" as="sourcePoint" />
            <mxPoint x="580" y="300" as="targetPoint" />
          </mxGeometry>
        </mxCell>
        <mxCell id="_5rseYd26OTaHgnTubhx-124" value="Likes" style="shape=table;startSize=30;container=1;collapsible=1;childLayout=tableLayout;fixedRows=1;rowLines=0;fontStyle=1;align=center;resizeLast=1;html=1;" vertex="1" parent="1">
          <mxGeometry x="290" y="230" width="180" height="130" as="geometry" />
        </mxCell>
        <mxCell id="_5rseYd26OTaHgnTubhx-125" value="" style="shape=tableRow;horizontal=0;startSize=0;swimlaneHead=0;swimlaneBody=0;fillColor=none;collapsible=0;dropTarget=0;points=[[0,0.5],[1,0.5]];portConstraint=eastwest;top=0;left=0;right=0;bottom=1;" vertex="1" parent="_5rseYd26OTaHgnTubhx-124">
          <mxGeometry y="30" width="180" height="30" as="geometry" />
        </mxCell>
        <mxCell id="_5rseYd26OTaHgnTubhx-126" value="PK, INT" style="shape=partialRectangle;connectable=0;fillColor=none;top=0;left=0;bottom=0;right=0;fontStyle=1;overflow=hidden;whiteSpace=wrap;html=1;" vertex="1" parent="_5rseYd26OTaHgnTubhx-125">
          <mxGeometry width="60" height="30" as="geometry">
            <mxRectangle width="60" height="30" as="alternateBounds" />
          </mxGeometry>
        </mxCell>
        <mxCell id="_5rseYd26OTaHgnTubhx-127" value="LikeId" style="shape=partialRectangle;connectable=0;fillColor=none;top=0;left=0;bottom=0;right=0;align=left;spacingLeft=6;fontStyle=5;overflow=hidden;whiteSpace=wrap;html=1;" vertex="1" parent="_5rseYd26OTaHgnTubhx-125">
          <mxGeometry x="60" width="120" height="30" as="geometry">
            <mxRectangle width="120" height="30" as="alternateBounds" />
          </mxGeometry>
        </mxCell>
        <mxCell id="_5rseYd26OTaHgnTubhx-128" value="" style="shape=tableRow;horizontal=0;startSize=0;swimlaneHead=0;swimlaneBody=0;fillColor=none;collapsible=0;dropTarget=0;points=[[0,0.5],[1,0.5]];portConstraint=eastwest;top=0;left=0;right=0;bottom=0;" vertex="1" parent="_5rseYd26OTaHgnTubhx-124">
          <mxGeometry y="60" width="180" height="20" as="geometry" />
        </mxCell>
        <mxCell id="_5rseYd26OTaHgnTubhx-129" value="FK, INT" style="shape=partialRectangle;connectable=0;fillColor=none;top=0;left=0;bottom=0;right=0;editable=1;overflow=hidden;whiteSpace=wrap;html=1;" vertex="1" parent="_5rseYd26OTaHgnTubhx-128">
          <mxGeometry width="60" height="20" as="geometry">
            <mxRectangle width="60" height="20" as="alternateBounds" />
          </mxGeometry>
        </mxCell>
        <mxCell id="_5rseYd26OTaHgnTubhx-130" value="UserId" style="shape=partialRectangle;connectable=0;fillColor=none;top=0;left=0;bottom=0;right=0;align=left;spacingLeft=6;overflow=hidden;whiteSpace=wrap;html=1;" vertex="1" parent="_5rseYd26OTaHgnTubhx-128">
          <mxGeometry x="60" width="120" height="20" as="geometry">
            <mxRectangle width="120" height="20" as="alternateBounds" />
          </mxGeometry>
        </mxCell>
        <mxCell id="_5rseYd26OTaHgnTubhx-131" value="" style="shape=tableRow;horizontal=0;startSize=0;swimlaneHead=0;swimlaneBody=0;fillColor=none;collapsible=0;dropTarget=0;points=[[0,0.5],[1,0.5]];portConstraint=eastwest;top=0;left=0;right=0;bottom=0;" vertex="1" parent="_5rseYd26OTaHgnTubhx-124">
          <mxGeometry y="80" width="180" height="20" as="geometry" />
        </mxCell>
        <mxCell id="_5rseYd26OTaHgnTubhx-132" value="FK, INT" style="shape=partialRectangle;connectable=0;fillColor=none;top=0;left=0;bottom=0;right=0;editable=1;overflow=hidden;whiteSpace=wrap;html=1;" vertex="1" parent="_5rseYd26OTaHgnTubhx-131">
          <mxGeometry width="60" height="20" as="geometry">
            <mxRectangle width="60" height="20" as="alternateBounds" />
          </mxGeometry>
        </mxCell>
        <mxCell id="_5rseYd26OTaHgnTubhx-133" value="VideoId" style="shape=partialRectangle;connectable=0;fillColor=none;top=0;left=0;bottom=0;right=0;align=left;spacingLeft=6;overflow=hidden;whiteSpace=wrap;html=1;" vertex="1" parent="_5rseYd26OTaHgnTubhx-131">
          <mxGeometry x="60" width="120" height="20" as="geometry">
            <mxRectangle width="120" height="20" as="alternateBounds" />
          </mxGeometry>
        </mxCell>
        <mxCell id="_5rseYd26OTaHgnTubhx-134" value="" style="shape=tableRow;horizontal=0;startSize=0;swimlaneHead=0;swimlaneBody=0;fillColor=none;collapsible=0;dropTarget=0;points=[[0,0.5],[1,0.5]];portConstraint=eastwest;top=0;left=0;right=0;bottom=0;" vertex="1" parent="_5rseYd26OTaHgnTubhx-124">
          <mxGeometry y="100" width="180" height="30" as="geometry" />
        </mxCell>
        <mxCell id="_5rseYd26OTaHgnTubhx-135" value="DATE" style="shape=partialRectangle;connectable=0;fillColor=none;top=0;left=0;bottom=0;right=0;editable=1;overflow=hidden;whiteSpace=wrap;html=1;" vertex="1" parent="_5rseYd26OTaHgnTubhx-134">
          <mxGeometry width="60" height="30" as="geometry">
            <mxRectangle width="60" height="30" as="alternateBounds" />
          </mxGeometry>
        </mxCell>
        <mxCell id="_5rseYd26OTaHgnTubhx-136" value="DateLiked" style="shape=partialRectangle;connectable=0;fillColor=none;top=0;left=0;bottom=0;right=0;align=left;spacingLeft=6;overflow=hidden;whiteSpace=wrap;html=1;" vertex="1" parent="_5rseYd26OTaHgnTubhx-134">
          <mxGeometry x="60" width="120" height="30" as="geometry">
            <mxRectangle width="120" height="30" as="alternateBounds" />
          </mxGeometry>
        </mxCell>
        <mxCell id="_5rseYd26OTaHgnTubhx-138" value="" style="edgeStyle=entityRelationEdgeStyle;fontSize=12;html=1;endArrow=ERoneToMany;rounded=0;exitX=1;exitY=0.5;exitDx=0;exitDy=0;entryX=1;entryY=0.5;entryDx=0;entryDy=0;" edge="1" parent="1" target="_5rseYd26OTaHgnTubhx-57">
          <mxGeometry width="100" height="100" relative="1" as="geometry">
            <mxPoint x="700" y="110" as="sourcePoint" />
            <mxPoint x="800" y="390" as="targetPoint" />
          </mxGeometry>
        </mxCell>
        <mxCell id="_5rseYd26OTaHgnTubhx-139" value="" style="edgeStyle=entityRelationEdgeStyle;fontSize=12;html=1;endArrow=ERoneToMany;rounded=0;exitX=1;exitY=0.2;exitDx=0;exitDy=0;exitPerimeter=0;" edge="1" parent="1" source="_5rseYd26OTaHgnTubhx-82">
          <mxGeometry width="100" height="100" relative="1" as="geometry">
            <mxPoint x="420" y="140" as="sourcePoint" />
            <mxPoint x="520" y="40" as="targetPoint" />
          </mxGeometry>
        </mxCell>
        <mxCell id="_5rseYd26OTaHgnTubhx-140" value="" style="edgeStyle=entityRelationEdgeStyle;fontSize=12;html=1;endArrow=ERoneToMany;rounded=0;exitX=1;exitY=0.5;exitDx=0;exitDy=0;entryX=0;entryY=0.833;entryDx=0;entryDy=0;entryPerimeter=0;" edge="1" parent="1" source="_5rseYd26OTaHgnTubhx-2" target="_5rseYd26OTaHgnTubhx-125">
          <mxGeometry width="100" height="100" relative="1" as="geometry">
            <mxPoint x="190" y="370" as="sourcePoint" />
            <mxPoint x="290" y="270" as="targetPoint" />
          </mxGeometry>
        </mxCell>
        <mxCell id="_5rseYd26OTaHgnTubhx-141" value="" style="edgeStyle=entityRelationEdgeStyle;fontSize=12;html=1;endArrow=ERoneToMany;rounded=0;exitX=0;exitY=0.5;exitDx=0;exitDy=0;entryX=1;entryY=0.5;entryDx=0;entryDy=0;" edge="1" parent="1" source="_5rseYd26OTaHgnTubhx-50" target="_5rseYd26OTaHgnTubhx-128">
          <mxGeometry width="100" height="100" relative="1" as="geometry">
            <mxPoint x="480" y="340" as="sourcePoint" />
            <mxPoint x="600" y="340" as="targetPoint" />
          </mxGeometry>
        </mxCell>
        <mxCell id="rGpGVCD47Dp8p_X7hgpb-1" value="User" style="whiteSpace=wrap;html=1;align=center;" vertex="1" parent="1">
          <mxGeometry x="-1310" y="160" width="100" height="40" as="geometry" />
        </mxCell>
        <mxCell id="rGpGVCD47Dp8p_X7hgpb-2" value="Video" style="whiteSpace=wrap;html=1;align=center;" vertex="1" parent="1">
          <mxGeometry x="-850" y="100" width="100" height="40" as="geometry" />
        </mxCell>
        <mxCell id="rGpGVCD47Dp8p_X7hgpb-3" value="Category" style="whiteSpace=wrap;html=1;align=center;" vertex="1" parent="1">
          <mxGeometry x="-270" y="160" width="100" height="40" as="geometry" />
        </mxCell>
        <mxCell id="rGpGVCD47Dp8p_X7hgpb-4" value="Channel" style="whiteSpace=wrap;html=1;align=center;" vertex="1" parent="1">
          <mxGeometry x="-1150" y="680" width="100" height="40" as="geometry" />
        </mxCell>
        <mxCell id="rGpGVCD47Dp8p_X7hgpb-5" value="Comment" style="whiteSpace=wrap;html=1;align=center;" vertex="1" parent="1">
          <mxGeometry x="-640" y="680" width="100" height="40" as="geometry" />
        </mxCell>
        <mxCell id="rGpGVCD47Dp8p_X7hgpb-6" value="Subscription" style="whiteSpace=wrap;html=1;align=center;" vertex="1" parent="1">
          <mxGeometry x="-1190" y="-290" width="100" height="40" as="geometry" />
        </mxCell>
        <mxCell id="rGpGVCD47Dp8p_X7hgpb-7" value="Likes" style="whiteSpace=wrap;html=1;align=center;" vertex="1" parent="1">
          <mxGeometry x="-620" y="-270" width="100" height="40" as="geometry" />
        </mxCell>
        <mxCell id="rGpGVCD47Dp8p_X7hgpb-8" value="" style="endArrow=none;html=1;rounded=0;entryX=0;entryY=0.5;entryDx=0;entryDy=0;exitX=1;exitY=0.5;exitDx=0;exitDy=0;" edge="1" parent="1" source="rGpGVCD47Dp8p_X7hgpb-15" target="rGpGVCD47Dp8p_X7hgpb-2">
          <mxGeometry relative="1" as="geometry">
            <mxPoint x="-980" y="180" as="sourcePoint" />
            <mxPoint x="-830" y="180" as="targetPoint" />
            <Array as="points" />
          </mxGeometry>
        </mxCell>
        <mxCell id="2Y70LHaVx3LbV2kZEcdd-61" value="&lt;font style=&quot;font-size: 14px;&quot;&gt;M&lt;/font&gt;" style="edgeLabel;html=1;align=center;verticalAlign=middle;resizable=0;points=[];" connectable="0" vertex="1" parent="rGpGVCD47Dp8p_X7hgpb-8">
          <mxGeometry x="-0.0277" y="-2" relative="1" as="geometry">
            <mxPoint x="30" y="-22" as="offset" />
          </mxGeometry>
        </mxCell>
        <mxCell id="rGpGVCD47Dp8p_X7hgpb-10" value="" style="endArrow=none;html=1;rounded=0;exitX=1;exitY=0.5;exitDx=0;exitDy=0;entryX=0;entryY=0.5;entryDx=0;entryDy=0;" edge="1" parent="1" source="rGpGVCD47Dp8p_X7hgpb-14" target="rGpGVCD47Dp8p_X7hgpb-3">
          <mxGeometry relative="1" as="geometry">
            <mxPoint x="-413.5" y="180" as="sourcePoint" />
            <mxPoint x="-460" y="179.5" as="targetPoint" />
          </mxGeometry>
        </mxCell>
        <mxCell id="2Y70LHaVx3LbV2kZEcdd-66" value="&lt;font style=&quot;font-size: 14px;&quot;&gt;1&lt;/font&gt;" style="edgeLabel;html=1;align=center;verticalAlign=middle;resizable=0;points=[];" connectable="0" vertex="1" parent="rGpGVCD47Dp8p_X7hgpb-10">
          <mxGeometry x="0.0265" relative="1" as="geometry">
            <mxPoint x="58" y="-10" as="offset" />
          </mxGeometry>
        </mxCell>
        <mxCell id="rGpGVCD47Dp8p_X7hgpb-12" value="" style="endArrow=none;html=1;rounded=0;exitX=1;exitY=0;exitDx=0;exitDy=0;entryX=0;entryY=0.5;entryDx=0;entryDy=0;" edge="1" parent="1" source="rGpGVCD47Dp8p_X7hgpb-2" target="rGpGVCD47Dp8p_X7hgpb-14">
          <mxGeometry relative="1" as="geometry">
            <mxPoint x="-620" y="180" as="sourcePoint" />
            <mxPoint x="-533.5" y="180" as="targetPoint" />
          </mxGeometry>
        </mxCell>
        <mxCell id="2Y70LHaVx3LbV2kZEcdd-62" value="&lt;font style=&quot;font-size: 14px;&quot;&gt;M&lt;/font&gt;" style="edgeLabel;html=1;align=center;verticalAlign=middle;resizable=0;points=[];" connectable="0" vertex="1" parent="rGpGVCD47Dp8p_X7hgpb-12">
          <mxGeometry x="-0.0167" y="1" relative="1" as="geometry">
            <mxPoint x="-58" y="-29" as="offset" />
          </mxGeometry>
        </mxCell>
        <mxCell id="rGpGVCD47Dp8p_X7hgpb-13" value="" style="endArrow=none;html=1;rounded=0;exitX=1;exitY=1;exitDx=0;exitDy=0;entryX=0.5;entryY=0;entryDx=0;entryDy=0;" edge="1" parent="1" source="rGpGVCD47Dp8p_X7hgpb-16" target="rGpGVCD47Dp8p_X7hgpb-4">
          <mxGeometry relative="1" as="geometry">
            <mxPoint x="-1090" y="300" as="sourcePoint" />
            <mxPoint x="-930" y="300" as="targetPoint" />
          </mxGeometry>
        </mxCell>
        <mxCell id="2Y70LHaVx3LbV2kZEcdd-68" value="&lt;font style=&quot;font-size: 14px;&quot;&gt;1&lt;/font&gt;" style="edgeLabel;html=1;align=center;verticalAlign=middle;resizable=0;points=[];" connectable="0" vertex="1" parent="rGpGVCD47Dp8p_X7hgpb-13">
          <mxGeometry x="0.0118" relative="1" as="geometry">
            <mxPoint x="40" y="118" as="offset" />
          </mxGeometry>
        </mxCell>
        <mxCell id="rGpGVCD47Dp8p_X7hgpb-14" value="BelongsTo" style="shape=rhombus;double=1;perimeter=rhombusPerimeter;whiteSpace=wrap;html=1;align=center;" vertex="1" parent="1">
          <mxGeometry x="-550" y="110" width="120" height="60" as="geometry" />
        </mxCell>
        <mxCell id="rGpGVCD47Dp8p_X7hgpb-18" value="" style="endArrow=none;html=1;rounded=0;exitX=1;exitY=1;exitDx=0;exitDy=0;entryX=0;entryY=0;entryDx=0;entryDy=0;" edge="1" parent="1" source="2Y70LHaVx3LbV2kZEcdd-87" target="rGpGVCD47Dp8p_X7hgpb-5">
          <mxGeometry relative="1" as="geometry">
            <mxPoint x="-857" y="485" as="sourcePoint" />
            <mxPoint x="-800" y="260" as="targetPoint" />
          </mxGeometry>
        </mxCell>
        <mxCell id="2Y70LHaVx3LbV2kZEcdd-77" value="&lt;font style=&quot;font-size: 14px;&quot;&gt;M&lt;/font&gt;" style="edgeLabel;html=1;align=center;verticalAlign=middle;resizable=0;points=[];" connectable="0" vertex="1" parent="rGpGVCD47Dp8p_X7hgpb-18">
          <mxGeometry x="-0.0137" y="-1" relative="1" as="geometry">
            <mxPoint x="90" y="63" as="offset" />
          </mxGeometry>
        </mxCell>
        <mxCell id="rGpGVCD47Dp8p_X7hgpb-19" value="" style="endArrow=none;html=1;rounded=0;exitX=1;exitY=1;exitDx=0;exitDy=0;entryX=0.333;entryY=0.25;entryDx=0;entryDy=0;entryPerimeter=0;" edge="1" parent="1" source="rGpGVCD47Dp8p_X7hgpb-1" target="2Y70LHaVx3LbV2kZEcdd-87">
          <mxGeometry relative="1" as="geometry">
            <mxPoint x="-980" y="200" as="sourcePoint" />
            <mxPoint x="-917" y="455" as="targetPoint" />
          </mxGeometry>
        </mxCell>
        <mxCell id="2Y70LHaVx3LbV2kZEcdd-76" value="&lt;font style=&quot;font-size: 14px;&quot;&gt;1&lt;/font&gt;" style="edgeLabel;html=1;align=center;verticalAlign=middle;resizable=0;points=[];" connectable="0" vertex="1" parent="rGpGVCD47Dp8p_X7hgpb-19">
          <mxGeometry x="0.0058" y="-4" relative="1" as="geometry">
            <mxPoint x="-125" y="-132" as="offset" />
          </mxGeometry>
        </mxCell>
        <mxCell id="rGpGVCD47Dp8p_X7hgpb-21" value="" style="endArrow=none;html=1;rounded=0;exitX=0.5;exitY=1;exitDx=0;exitDy=0;entryX=0.5;entryY=0;entryDx=0;entryDy=0;" edge="1" parent="1" source="rGpGVCD47Dp8p_X7hgpb-23" target="rGpGVCD47Dp8p_X7hgpb-1">
          <mxGeometry relative="1" as="geometry">
            <mxPoint x="-1070" y="40" as="sourcePoint" />
            <mxPoint x="-910" y="40" as="targetPoint" />
          </mxGeometry>
        </mxCell>
        <mxCell id="2Y70LHaVx3LbV2kZEcdd-73" value="&lt;font style=&quot;font-size: 14px;&quot;&gt;M&lt;/font&gt;" style="edgeLabel;html=1;align=center;verticalAlign=middle;resizable=0;points=[];" connectable="0" vertex="1" parent="rGpGVCD47Dp8p_X7hgpb-21">
          <mxGeometry x="-0.0349" relative="1" as="geometry">
            <mxPoint x="-46" y="68" as="offset" />
          </mxGeometry>
        </mxCell>
        <mxCell id="rGpGVCD47Dp8p_X7hgpb-22" value="" style="endArrow=none;html=1;rounded=0;exitX=0.5;exitY=1;exitDx=0;exitDy=0;entryX=0.5;entryY=0;entryDx=0;entryDy=0;" edge="1" parent="1" source="rGpGVCD47Dp8p_X7hgpb-6" target="rGpGVCD47Dp8p_X7hgpb-23">
          <mxGeometry relative="1" as="geometry">
            <mxPoint x="-1030" y="-100" as="sourcePoint" />
            <mxPoint x="-1030" y="160" as="targetPoint" />
          </mxGeometry>
        </mxCell>
        <mxCell id="2Y70LHaVx3LbV2kZEcdd-74" value="&lt;font style=&quot;font-size: 14px;&quot;&gt;M&lt;/font&gt;" style="edgeLabel;html=1;align=center;verticalAlign=middle;resizable=0;points=[];" connectable="0" vertex="1" parent="rGpGVCD47Dp8p_X7hgpb-22">
          <mxGeometry x="0.0124" relative="1" as="geometry">
            <mxPoint x="35" y="-61" as="offset" />
          </mxGeometry>
        </mxCell>
        <mxCell id="rGpGVCD47Dp8p_X7hgpb-23" value="has" style="shape=rhombus;perimeter=rhombusPerimeter;whiteSpace=wrap;html=1;align=center;" vertex="1" parent="1">
          <mxGeometry x="-1250" y="-90" width="120" height="60" as="geometry" />
        </mxCell>
        <mxCell id="rGpGVCD47Dp8p_X7hgpb-24" value="" style="endArrow=none;html=1;rounded=0;exitX=0.5;exitY=1;exitDx=0;exitDy=0;entryX=0.5;entryY=0;entryDx=0;entryDy=0;" edge="1" parent="1" source="rGpGVCD47Dp8p_X7hgpb-25" target="rGpGVCD47Dp8p_X7hgpb-2">
          <mxGeometry relative="1" as="geometry">
            <mxPoint x="-670" y="70" as="sourcePoint" />
            <mxPoint x="-670" y="150" as="targetPoint" />
          </mxGeometry>
        </mxCell>
        <mxCell id="2Y70LHaVx3LbV2kZEcdd-85" value="&lt;font style=&quot;font-size: 14px;&quot;&gt;1&lt;/font&gt;" style="edgeLabel;html=1;align=center;verticalAlign=middle;resizable=0;points=[];" connectable="0" vertex="1" parent="rGpGVCD47Dp8p_X7hgpb-24">
          <mxGeometry x="0.0679" y="2" relative="1" as="geometry">
            <mxPoint x="-80" y="24" as="offset" />
          </mxGeometry>
        </mxCell>
        <mxCell id="rGpGVCD47Dp8p_X7hgpb-26" value="" style="endArrow=none;html=1;rounded=0;exitX=0.5;exitY=1;exitDx=0;exitDy=0;entryX=0;entryY=0;entryDx=0;entryDy=0;" edge="1" parent="1" source="rGpGVCD47Dp8p_X7hgpb-1" target="rGpGVCD47Dp8p_X7hgpb-16">
          <mxGeometry relative="1" as="geometry">
            <mxPoint x="-1260" y="200" as="sourcePoint" />
            <mxPoint x="-1030" y="400" as="targetPoint" />
          </mxGeometry>
        </mxCell>
        <mxCell id="2Y70LHaVx3LbV2kZEcdd-67" value="&lt;font style=&quot;font-size: 14px;&quot;&gt;1&lt;/font&gt;" style="edgeLabel;html=1;align=center;verticalAlign=middle;resizable=0;points=[];" connectable="0" vertex="1" parent="rGpGVCD47Dp8p_X7hgpb-26">
          <mxGeometry x="-0.0198" y="-2" relative="1" as="geometry">
            <mxPoint x="2" y="-63" as="offset" />
          </mxGeometry>
        </mxCell>
        <mxCell id="rGpGVCD47Dp8p_X7hgpb-16" value="has" style="shape=rhombus;double=1;perimeter=rhombusPerimeter;whiteSpace=wrap;html=1;align=center;" vertex="1" parent="1">
          <mxGeometry x="-1250" y="355" width="120" height="60" as="geometry" />
        </mxCell>
        <mxCell id="rGpGVCD47Dp8p_X7hgpb-27" value="" style="endArrow=none;html=1;rounded=0;exitX=0.5;exitY=1;exitDx=0;exitDy=0;" edge="1" parent="1" source="rGpGVCD47Dp8p_X7hgpb-7" target="rGpGVCD47Dp8p_X7hgpb-25">
          <mxGeometry relative="1" as="geometry">
            <mxPoint x="-570" y="-230" as="sourcePoint" />
            <mxPoint x="-670" y="150" as="targetPoint" />
          </mxGeometry>
        </mxCell>
        <mxCell id="2Y70LHaVx3LbV2kZEcdd-86" value="&lt;font style=&quot;font-size: 14px;&quot;&gt;M&lt;/font&gt;" style="edgeLabel;html=1;align=center;verticalAlign=middle;resizable=0;points=[];" connectable="0" vertex="1" parent="rGpGVCD47Dp8p_X7hgpb-27">
          <mxGeometry x="0.0573" y="1" relative="1" as="geometry">
            <mxPoint x="27" y="-51" as="offset" />
          </mxGeometry>
        </mxCell>
        <mxCell id="rGpGVCD47Dp8p_X7hgpb-25" value="has" style="shape=rhombus;perimeter=rhombusPerimeter;whiteSpace=wrap;html=1;align=center;" vertex="1" parent="1">
          <mxGeometry x="-670" y="-80" width="120" height="60" as="geometry" />
        </mxCell>
        <mxCell id="rGpGVCD47Dp8p_X7hgpb-28" value="" style="endArrow=none;html=1;rounded=0;entryX=0;entryY=0.5;entryDx=0;entryDy=0;exitX=1;exitY=0.5;exitDx=0;exitDy=0;" edge="1" parent="1" source="rGpGVCD47Dp8p_X7hgpb-1" target="rGpGVCD47Dp8p_X7hgpb-15">
          <mxGeometry relative="1" as="geometry">
            <mxPoint x="-1210" y="180" as="sourcePoint" />
            <mxPoint x="-720" y="180" as="targetPoint" />
            <Array as="points" />
          </mxGeometry>
        </mxCell>
        <mxCell id="2Y70LHaVx3LbV2kZEcdd-59" value="&lt;font style=&quot;font-size: 14px;&quot;&gt;1&lt;/font&gt;" style="edgeLabel;html=1;align=center;verticalAlign=middle;resizable=0;points=[];" connectable="0" vertex="1" parent="rGpGVCD47Dp8p_X7hgpb-28">
          <mxGeometry x="-0.0317" y="-2" relative="1" as="geometry">
            <mxPoint x="-40" y="-3" as="offset" />
          </mxGeometry>
        </mxCell>
        <mxCell id="rGpGVCD47Dp8p_X7hgpb-15" value="Uploads" style="shape=rhombus;double=1;perimeter=rhombusPerimeter;whiteSpace=wrap;html=1;align=center;" vertex="1" parent="1">
          <mxGeometry x="-1067" y="90" width="120" height="60" as="geometry" />
        </mxCell>
        <mxCell id="rGpGVCD47Dp8p_X7hgpb-29" value="Name" style="ellipse;whiteSpace=wrap;html=1;align=center;" vertex="1" parent="1">
          <mxGeometry x="-240" y="60" width="100" height="40" as="geometry" />
        </mxCell>
        <mxCell id="rGpGVCD47Dp8p_X7hgpb-30" value="CategoryID" style="ellipse;whiteSpace=wrap;html=1;align=center;fontStyle=4;" vertex="1" parent="1">
          <mxGeometry x="-140" y="120" width="100" height="40" as="geometry" />
        </mxCell>
        <mxCell id="rGpGVCD47Dp8p_X7hgpb-31" value="Description" style="ellipse;whiteSpace=wrap;html=1;align=center;" vertex="1" parent="1">
          <mxGeometry x="-132" y="200" width="100" height="40" as="geometry" />
        </mxCell>
        <mxCell id="rGpGVCD47Dp8p_X7hgpb-32" value="" style="endArrow=none;html=1;rounded=0;entryX=0.5;entryY=1;entryDx=0;entryDy=0;exitX=0.5;exitY=0;exitDx=0;exitDy=0;" edge="1" parent="1" source="rGpGVCD47Dp8p_X7hgpb-3" target="rGpGVCD47Dp8p_X7hgpb-29">
          <mxGeometry relative="1" as="geometry">
            <mxPoint x="-580" y="170" as="sourcePoint" />
            <mxPoint x="-420" y="170" as="targetPoint" />
          </mxGeometry>
        </mxCell>
        <mxCell id="rGpGVCD47Dp8p_X7hgpb-33" value="" style="endArrow=none;html=1;rounded=0;entryX=0;entryY=1;entryDx=0;entryDy=0;exitX=1;exitY=0.5;exitDx=0;exitDy=0;" edge="1" parent="1" source="rGpGVCD47Dp8p_X7hgpb-3" target="rGpGVCD47Dp8p_X7hgpb-30">
          <mxGeometry relative="1" as="geometry">
            <mxPoint x="-580" y="170" as="sourcePoint" />
            <mxPoint x="-420" y="170" as="targetPoint" />
          </mxGeometry>
        </mxCell>
        <mxCell id="rGpGVCD47Dp8p_X7hgpb-34" value="" style="endArrow=none;html=1;rounded=0;entryX=0;entryY=0.5;entryDx=0;entryDy=0;exitX=1;exitY=1;exitDx=0;exitDy=0;" edge="1" parent="1" source="rGpGVCD47Dp8p_X7hgpb-3" target="rGpGVCD47Dp8p_X7hgpb-31">
          <mxGeometry relative="1" as="geometry">
            <mxPoint x="-580" y="170" as="sourcePoint" />
            <mxPoint x="-420" y="170" as="targetPoint" />
          </mxGeometry>
        </mxCell>
        <mxCell id="2Y70LHaVx3LbV2kZEcdd-1" value="UserID" style="ellipse;whiteSpace=wrap;html=1;align=center;" vertex="1" parent="1">
          <mxGeometry x="-570" y="-380" width="100" height="40" as="geometry" />
        </mxCell>
        <mxCell id="2Y70LHaVx3LbV2kZEcdd-2" value="LikeID" style="ellipse;whiteSpace=wrap;html=1;align=center;fontStyle=4;" vertex="1" parent="1">
          <mxGeometry x="-480" y="-310" width="100" height="40" as="geometry" />
        </mxCell>
        <mxCell id="2Y70LHaVx3LbV2kZEcdd-3" value="VideoID" style="ellipse;whiteSpace=wrap;html=1;align=center;" vertex="1" parent="1">
          <mxGeometry x="-710" y="-380" width="100" height="40" as="geometry" />
        </mxCell>
        <mxCell id="2Y70LHaVx3LbV2kZEcdd-4" value="DateLiked" style="ellipse;whiteSpace=wrap;html=1;align=center;" vertex="1" parent="1">
          <mxGeometry x="-790" y="-297" width="100" height="40" as="geometry" />
        </mxCell>
        <mxCell id="2Y70LHaVx3LbV2kZEcdd-5" value="" style="endArrow=none;html=1;rounded=0;entryX=0.07;entryY=0.7;entryDx=0;entryDy=0;entryPerimeter=0;exitX=1;exitY=0.5;exitDx=0;exitDy=0;" edge="1" parent="1" source="rGpGVCD47Dp8p_X7hgpb-7" target="2Y70LHaVx3LbV2kZEcdd-2">
          <mxGeometry relative="1" as="geometry">
            <mxPoint x="-600" y="-297" as="sourcePoint" />
            <mxPoint x="-440" y="-297" as="targetPoint" />
          </mxGeometry>
        </mxCell>
        <mxCell id="2Y70LHaVx3LbV2kZEcdd-6" value="" style="endArrow=none;html=1;rounded=0;entryX=0;entryY=1;entryDx=0;entryDy=0;exitX=0.75;exitY=0;exitDx=0;exitDy=0;" edge="1" parent="1" source="rGpGVCD47Dp8p_X7hgpb-7" target="2Y70LHaVx3LbV2kZEcdd-1">
          <mxGeometry relative="1" as="geometry">
            <mxPoint x="-210" y="-10" as="sourcePoint" />
            <mxPoint x="-50" y="-10" as="targetPoint" />
          </mxGeometry>
        </mxCell>
        <mxCell id="2Y70LHaVx3LbV2kZEcdd-7" value="" style="endArrow=none;html=1;rounded=0;entryX=0.5;entryY=1;entryDx=0;entryDy=0;exitX=0.25;exitY=0;exitDx=0;exitDy=0;" edge="1" parent="1" source="rGpGVCD47Dp8p_X7hgpb-7" target="2Y70LHaVx3LbV2kZEcdd-3">
          <mxGeometry relative="1" as="geometry">
            <mxPoint x="-210" y="-10" as="sourcePoint" />
            <mxPoint x="-50" y="-10" as="targetPoint" />
          </mxGeometry>
        </mxCell>
        <mxCell id="2Y70LHaVx3LbV2kZEcdd-8" value="" style="endArrow=none;html=1;rounded=0;exitX=1;exitY=0.5;exitDx=0;exitDy=0;entryX=0;entryY=0.5;entryDx=0;entryDy=0;" edge="1" parent="1" source="2Y70LHaVx3LbV2kZEcdd-4" target="rGpGVCD47Dp8p_X7hgpb-7">
          <mxGeometry relative="1" as="geometry">
            <mxPoint x="-210" y="-10" as="sourcePoint" />
            <mxPoint x="-50" y="-10" as="targetPoint" />
          </mxGeometry>
        </mxCell>
        <mxCell id="2Y70LHaVx3LbV2kZEcdd-9" value="SubscriptionID" style="ellipse;whiteSpace=wrap;html=1;align=center;fontStyle=4;" vertex="1" parent="1">
          <mxGeometry x="-1310" y="-350" width="100" height="40" as="geometry" />
        </mxCell>
        <mxCell id="2Y70LHaVx3LbV2kZEcdd-10" value="SubscriberUserID&amp;nbsp;" style="ellipse;whiteSpace=wrap;html=1;align=center;" vertex="1" parent="1">
          <mxGeometry x="-1170" y="-390" width="120" height="40" as="geometry" />
        </mxCell>
        <mxCell id="2Y70LHaVx3LbV2kZEcdd-11" value="ChannelID" style="ellipse;whiteSpace=wrap;html=1;align=center;" vertex="1" parent="1">
          <mxGeometry x="-1050" y="-340" width="100" height="40" as="geometry" />
        </mxCell>
        <mxCell id="2Y70LHaVx3LbV2kZEcdd-12" value="" style="endArrow=none;html=1;rounded=0;exitX=1;exitY=1;exitDx=0;exitDy=0;entryX=0;entryY=0;entryDx=0;entryDy=0;" edge="1" parent="1" source="2Y70LHaVx3LbV2kZEcdd-9" target="rGpGVCD47Dp8p_X7hgpb-6">
          <mxGeometry relative="1" as="geometry">
            <mxPoint x="-850" y="-170" as="sourcePoint" />
            <mxPoint x="-690" y="-170" as="targetPoint" />
          </mxGeometry>
        </mxCell>
        <mxCell id="2Y70LHaVx3LbV2kZEcdd-13" value="" style="endArrow=none;html=1;rounded=0;exitX=0.5;exitY=1;exitDx=0;exitDy=0;entryX=0.5;entryY=0;entryDx=0;entryDy=0;" edge="1" parent="1" source="2Y70LHaVx3LbV2kZEcdd-10" target="rGpGVCD47Dp8p_X7hgpb-6">
          <mxGeometry relative="1" as="geometry">
            <mxPoint x="-850" y="-170" as="sourcePoint" />
            <mxPoint x="-690" y="-170" as="targetPoint" />
          </mxGeometry>
        </mxCell>
        <mxCell id="2Y70LHaVx3LbV2kZEcdd-14" value="" style="endArrow=none;html=1;rounded=0;exitX=0;exitY=1;exitDx=0;exitDy=0;entryX=1;entryY=0;entryDx=0;entryDy=0;" edge="1" parent="1" source="2Y70LHaVx3LbV2kZEcdd-11" target="rGpGVCD47Dp8p_X7hgpb-6">
          <mxGeometry relative="1" as="geometry">
            <mxPoint x="-850" y="-170" as="sourcePoint" />
            <mxPoint x="-690" y="-170" as="targetPoint" />
          </mxGeometry>
        </mxCell>
        <mxCell id="2Y70LHaVx3LbV2kZEcdd-15" value="&lt;code&gt;ChannelID&lt;/code&gt;" style="ellipse;whiteSpace=wrap;html=1;align=center;fontStyle=4;" vertex="1" parent="1">
          <mxGeometry x="-1300" y="710" width="100" height="40" as="geometry" />
        </mxCell>
        <mxCell id="2Y70LHaVx3LbV2kZEcdd-16" value="Name" style="ellipse;whiteSpace=wrap;html=1;align=center;" vertex="1" parent="1">
          <mxGeometry x="-1240" y="780" width="100" height="40" as="geometry" />
        </mxCell>
        <mxCell id="2Y70LHaVx3LbV2kZEcdd-17" value="Description" style="ellipse;whiteSpace=wrap;html=1;align=center;" vertex="1" parent="1">
          <mxGeometry x="-1080" y="780" width="100" height="40" as="geometry" />
        </mxCell>
        <mxCell id="2Y70LHaVx3LbV2kZEcdd-18" value="UserID" style="ellipse;whiteSpace=wrap;html=1;align=center;" vertex="1" parent="1">
          <mxGeometry x="-1010" y="715" width="100" height="40" as="geometry" />
        </mxCell>
        <mxCell id="2Y70LHaVx3LbV2kZEcdd-20" value="" style="endArrow=none;html=1;rounded=0;exitX=1;exitY=1;exitDx=0;exitDy=0;entryX=0;entryY=0.5;entryDx=0;entryDy=0;" edge="1" parent="1" source="rGpGVCD47Dp8p_X7hgpb-4" target="2Y70LHaVx3LbV2kZEcdd-18">
          <mxGeometry relative="1" as="geometry">
            <mxPoint x="-850" y="630" as="sourcePoint" />
            <mxPoint x="-690" y="630" as="targetPoint" />
          </mxGeometry>
        </mxCell>
        <mxCell id="2Y70LHaVx3LbV2kZEcdd-21" value="" style="endArrow=none;html=1;rounded=0;exitX=0.75;exitY=1;exitDx=0;exitDy=0;entryX=0.38;entryY=0.075;entryDx=0;entryDy=0;entryPerimeter=0;" edge="1" parent="1" source="rGpGVCD47Dp8p_X7hgpb-4" target="2Y70LHaVx3LbV2kZEcdd-17">
          <mxGeometry relative="1" as="geometry">
            <mxPoint x="-850" y="630" as="sourcePoint" />
            <mxPoint x="-690" y="630" as="targetPoint" />
          </mxGeometry>
        </mxCell>
        <mxCell id="2Y70LHaVx3LbV2kZEcdd-22" value="" style="endArrow=none;html=1;rounded=0;exitX=0.25;exitY=1;exitDx=0;exitDy=0;entryX=1;entryY=0;entryDx=0;entryDy=0;" edge="1" parent="1" source="rGpGVCD47Dp8p_X7hgpb-4" target="2Y70LHaVx3LbV2kZEcdd-16">
          <mxGeometry relative="1" as="geometry">
            <mxPoint x="-850" y="630" as="sourcePoint" />
            <mxPoint x="-690" y="630" as="targetPoint" />
          </mxGeometry>
        </mxCell>
        <mxCell id="2Y70LHaVx3LbV2kZEcdd-23" value="" style="endArrow=none;html=1;rounded=0;exitX=0;exitY=1;exitDx=0;exitDy=0;entryX=1;entryY=0.5;entryDx=0;entryDy=0;" edge="1" parent="1" source="rGpGVCD47Dp8p_X7hgpb-4" target="2Y70LHaVx3LbV2kZEcdd-15">
          <mxGeometry relative="1" as="geometry">
            <mxPoint x="-850" y="630" as="sourcePoint" />
            <mxPoint x="-690" y="630" as="targetPoint" />
          </mxGeometry>
        </mxCell>
        <mxCell id="2Y70LHaVx3LbV2kZEcdd-24" value="CommentID" style="ellipse;whiteSpace=wrap;html=1;align=center;fontStyle=4;" vertex="1" parent="1">
          <mxGeometry x="-463" y="676" width="100" height="40" as="geometry" />
        </mxCell>
        <mxCell id="2Y70LHaVx3LbV2kZEcdd-25" value="Text" style="ellipse;whiteSpace=wrap;html=1;align=center;" vertex="1" parent="1">
          <mxGeometry x="-500" y="770" width="100" height="40" as="geometry" />
        </mxCell>
        <mxCell id="2Y70LHaVx3LbV2kZEcdd-26" value="UserID" style="ellipse;whiteSpace=wrap;html=1;align=center;" vertex="1" parent="1">
          <mxGeometry x="-620" y="780" width="100" height="40" as="geometry" />
        </mxCell>
        <mxCell id="2Y70LHaVx3LbV2kZEcdd-27" value="DatePosted" style="ellipse;whiteSpace=wrap;html=1;align=center;" vertex="1" parent="1">
          <mxGeometry x="-760" y="770" width="100" height="40" as="geometry" />
        </mxCell>
        <mxCell id="2Y70LHaVx3LbV2kZEcdd-28" value="VideoID" style="ellipse;whiteSpace=wrap;html=1;align=center;" vertex="1" parent="1">
          <mxGeometry x="-810" y="690" width="100" height="40" as="geometry" />
        </mxCell>
        <mxCell id="2Y70LHaVx3LbV2kZEcdd-29" value="" style="endArrow=none;html=1;rounded=0;entryX=0;entryY=0.5;entryDx=0;entryDy=0;exitX=1;exitY=0.5;exitDx=0;exitDy=0;" edge="1" parent="1" source="2Y70LHaVx3LbV2kZEcdd-28" target="rGpGVCD47Dp8p_X7hgpb-5">
          <mxGeometry relative="1" as="geometry">
            <mxPoint x="-850" y="630" as="sourcePoint" />
            <mxPoint x="-690" y="630" as="targetPoint" />
          </mxGeometry>
        </mxCell>
        <mxCell id="2Y70LHaVx3LbV2kZEcdd-30" value="" style="endArrow=none;html=1;rounded=0;entryX=0;entryY=1;entryDx=0;entryDy=0;exitX=1;exitY=0;exitDx=0;exitDy=0;" edge="1" parent="1" source="2Y70LHaVx3LbV2kZEcdd-27" target="rGpGVCD47Dp8p_X7hgpb-5">
          <mxGeometry relative="1" as="geometry">
            <mxPoint x="-850" y="630" as="sourcePoint" />
            <mxPoint x="-690" y="630" as="targetPoint" />
          </mxGeometry>
        </mxCell>
        <mxCell id="2Y70LHaVx3LbV2kZEcdd-31" value="" style="endArrow=none;html=1;rounded=0;entryX=0.5;entryY=1;entryDx=0;entryDy=0;exitX=0.5;exitY=0;exitDx=0;exitDy=0;" edge="1" parent="1" source="2Y70LHaVx3LbV2kZEcdd-26" target="rGpGVCD47Dp8p_X7hgpb-5">
          <mxGeometry relative="1" as="geometry">
            <mxPoint x="-850" y="630" as="sourcePoint" />
            <mxPoint x="-690" y="630" as="targetPoint" />
          </mxGeometry>
        </mxCell>
        <mxCell id="2Y70LHaVx3LbV2kZEcdd-32" value="" style="endArrow=none;html=1;rounded=0;entryX=0;entryY=0.5;entryDx=0;entryDy=0;exitX=1;exitY=0.5;exitDx=0;exitDy=0;" edge="1" parent="1" source="rGpGVCD47Dp8p_X7hgpb-5" target="2Y70LHaVx3LbV2kZEcdd-24">
          <mxGeometry relative="1" as="geometry">
            <mxPoint x="-850" y="630" as="sourcePoint" />
            <mxPoint x="-690" y="630" as="targetPoint" />
          </mxGeometry>
        </mxCell>
        <mxCell id="2Y70LHaVx3LbV2kZEcdd-33" value="" style="endArrow=none;html=1;rounded=0;entryX=0.2;entryY=0;entryDx=0;entryDy=0;entryPerimeter=0;exitX=1;exitY=1;exitDx=0;exitDy=0;" edge="1" parent="1" source="rGpGVCD47Dp8p_X7hgpb-5" target="2Y70LHaVx3LbV2kZEcdd-25">
          <mxGeometry relative="1" as="geometry">
            <mxPoint x="-850" y="630" as="sourcePoint" />
            <mxPoint x="-690" y="630" as="targetPoint" />
          </mxGeometry>
        </mxCell>
        <mxCell id="2Y70LHaVx3LbV2kZEcdd-34" value="VideoID" style="ellipse;whiteSpace=wrap;html=1;align=center;fontStyle=4;" vertex="1" parent="1">
          <mxGeometry x="-660" y="190" width="100" height="40" as="geometry" />
        </mxCell>
        <mxCell id="2Y70LHaVx3LbV2kZEcdd-35" value="Description" style="ellipse;whiteSpace=wrap;html=1;align=center;" vertex="1" parent="1">
          <mxGeometry x="-650" y="250" width="100" height="40" as="geometry" />
        </mxCell>
        <mxCell id="2Y70LHaVx3LbV2kZEcdd-36" value="UploadDate" style="ellipse;whiteSpace=wrap;html=1;align=center;" vertex="1" parent="1">
          <mxGeometry x="-720" y="290" width="100" height="40" as="geometry" />
        </mxCell>
        <mxCell id="2Y70LHaVx3LbV2kZEcdd-37" value="Views" style="ellipse;whiteSpace=wrap;html=1;align=center;" vertex="1" parent="1">
          <mxGeometry x="-870" y="280" width="100" height="40" as="geometry" />
        </mxCell>
        <mxCell id="2Y70LHaVx3LbV2kZEcdd-38" value="UserID" style="ellipse;whiteSpace=wrap;html=1;align=center;" vertex="1" parent="1">
          <mxGeometry x="-960" y="235" width="100" height="40" as="geometry" />
        </mxCell>
        <mxCell id="2Y70LHaVx3LbV2kZEcdd-39" value="CategoryID" style="ellipse;whiteSpace=wrap;html=1;align=center;" vertex="1" parent="1">
          <mxGeometry x="-1000" y="170" width="100" height="40" as="geometry" />
        </mxCell>
        <mxCell id="2Y70LHaVx3LbV2kZEcdd-40" value="Title" style="ellipse;whiteSpace=wrap;html=1;align=center;" vertex="1" parent="1">
          <mxGeometry x="-690" y="130" width="100" height="40" as="geometry" />
        </mxCell>
        <mxCell id="2Y70LHaVx3LbV2kZEcdd-41" value="" style="endArrow=none;html=1;rounded=0;entryX=0;entryY=1;entryDx=0;entryDy=0;exitX=1;exitY=0.5;exitDx=0;exitDy=0;" edge="1" parent="1" source="2Y70LHaVx3LbV2kZEcdd-39" target="rGpGVCD47Dp8p_X7hgpb-2">
          <mxGeometry relative="1" as="geometry">
            <mxPoint x="-850" y="130" as="sourcePoint" />
            <mxPoint x="-690" y="130" as="targetPoint" />
          </mxGeometry>
        </mxCell>
        <mxCell id="2Y70LHaVx3LbV2kZEcdd-42" value="" style="endArrow=none;html=1;rounded=0;entryX=0.25;entryY=1;entryDx=0;entryDy=0;exitX=1;exitY=0;exitDx=0;exitDy=0;" edge="1" parent="1" source="2Y70LHaVx3LbV2kZEcdd-38" target="rGpGVCD47Dp8p_X7hgpb-2">
          <mxGeometry relative="1" as="geometry">
            <mxPoint x="-850" y="130" as="sourcePoint" />
            <mxPoint x="-690" y="130" as="targetPoint" />
          </mxGeometry>
        </mxCell>
        <mxCell id="2Y70LHaVx3LbV2kZEcdd-43" value="" style="endArrow=none;html=1;rounded=0;entryX=0.5;entryY=1;entryDx=0;entryDy=0;exitX=0.5;exitY=0;exitDx=0;exitDy=0;" edge="1" parent="1" source="2Y70LHaVx3LbV2kZEcdd-37" target="rGpGVCD47Dp8p_X7hgpb-2">
          <mxGeometry relative="1" as="geometry">
            <mxPoint x="-850" y="130" as="sourcePoint" />
            <mxPoint x="-690" y="130" as="targetPoint" />
          </mxGeometry>
        </mxCell>
        <mxCell id="2Y70LHaVx3LbV2kZEcdd-44" value="" style="endArrow=none;html=1;rounded=0;entryX=0.5;entryY=0;entryDx=0;entryDy=0;exitX=0.75;exitY=1;exitDx=0;exitDy=0;" edge="1" parent="1" source="rGpGVCD47Dp8p_X7hgpb-2" target="2Y70LHaVx3LbV2kZEcdd-36">
          <mxGeometry relative="1" as="geometry">
            <mxPoint x="-850" y="130" as="sourcePoint" />
            <mxPoint x="-690" y="130" as="targetPoint" />
          </mxGeometry>
        </mxCell>
        <mxCell id="2Y70LHaVx3LbV2kZEcdd-45" value="" style="endArrow=none;html=1;rounded=0;entryX=0;entryY=0;entryDx=0;entryDy=0;exitX=1;exitY=1;exitDx=0;exitDy=0;" edge="1" parent="1" source="rGpGVCD47Dp8p_X7hgpb-2" target="2Y70LHaVx3LbV2kZEcdd-35">
          <mxGeometry relative="1" as="geometry">
            <mxPoint x="-850" y="130" as="sourcePoint" />
            <mxPoint x="-690" y="130" as="targetPoint" />
          </mxGeometry>
        </mxCell>
        <mxCell id="2Y70LHaVx3LbV2kZEcdd-46" value="" style="endArrow=none;html=1;rounded=0;entryX=0;entryY=0.5;entryDx=0;entryDy=0;exitX=1;exitY=0.5;exitDx=0;exitDy=0;" edge="1" parent="1" source="rGpGVCD47Dp8p_X7hgpb-2" target="2Y70LHaVx3LbV2kZEcdd-40">
          <mxGeometry relative="1" as="geometry">
            <mxPoint x="-850" y="130" as="sourcePoint" />
            <mxPoint x="-690" y="130" as="targetPoint" />
          </mxGeometry>
        </mxCell>
        <mxCell id="2Y70LHaVx3LbV2kZEcdd-48" value="" style="endArrow=none;html=1;rounded=0;entryX=0;entryY=0;entryDx=0;entryDy=0;exitX=1;exitY=0.75;exitDx=0;exitDy=0;" edge="1" parent="1" source="rGpGVCD47Dp8p_X7hgpb-2" target="2Y70LHaVx3LbV2kZEcdd-34">
          <mxGeometry relative="1" as="geometry">
            <mxPoint x="-850" y="130" as="sourcePoint" />
            <mxPoint x="-690" y="130" as="targetPoint" />
          </mxGeometry>
        </mxCell>
        <mxCell id="2Y70LHaVx3LbV2kZEcdd-49" value="UserID" style="ellipse;whiteSpace=wrap;html=1;align=center;fontStyle=4;" vertex="1" parent="1">
          <mxGeometry x="-1390" y="60" width="100" height="40" as="geometry" />
        </mxCell>
        <mxCell id="2Y70LHaVx3LbV2kZEcdd-50" value="Username" style="ellipse;whiteSpace=wrap;html=1;align=center;" vertex="1" parent="1">
          <mxGeometry x="-1470" y="115" width="100" height="40" as="geometry" />
        </mxCell>
        <mxCell id="2Y70LHaVx3LbV2kZEcdd-51" value="Email" style="ellipse;whiteSpace=wrap;html=1;align=center;" vertex="1" parent="1">
          <mxGeometry x="-1530" y="170" width="100" height="40" as="geometry" />
        </mxCell>
        <mxCell id="2Y70LHaVx3LbV2kZEcdd-52" value="DateCreated" style="ellipse;whiteSpace=wrap;html=1;align=center;" vertex="1" parent="1">
          <mxGeometry x="-1470" y="230" width="100" height="40" as="geometry" />
        </mxCell>
        <mxCell id="2Y70LHaVx3LbV2kZEcdd-53" value="Status" style="ellipse;whiteSpace=wrap;html=1;align=center;" vertex="1" parent="1">
          <mxGeometry x="-1390" y="290" width="100" height="40" as="geometry" />
        </mxCell>
        <mxCell id="2Y70LHaVx3LbV2kZEcdd-54" value="" style="endArrow=none;html=1;rounded=0;exitX=0.5;exitY=1;exitDx=0;exitDy=0;entryX=0;entryY=0;entryDx=0;entryDy=0;" edge="1" parent="1" source="2Y70LHaVx3LbV2kZEcdd-49" target="rGpGVCD47Dp8p_X7hgpb-1">
          <mxGeometry relative="1" as="geometry">
            <mxPoint x="-940" y="120" as="sourcePoint" />
            <mxPoint x="-780" y="120" as="targetPoint" />
          </mxGeometry>
        </mxCell>
        <mxCell id="2Y70LHaVx3LbV2kZEcdd-55" value="" style="endArrow=none;html=1;rounded=0;exitX=1;exitY=0.5;exitDx=0;exitDy=0;entryX=0;entryY=0.25;entryDx=0;entryDy=0;" edge="1" parent="1" source="2Y70LHaVx3LbV2kZEcdd-50" target="rGpGVCD47Dp8p_X7hgpb-1">
          <mxGeometry relative="1" as="geometry">
            <mxPoint x="-940" y="120" as="sourcePoint" />
            <mxPoint x="-780" y="120" as="targetPoint" />
          </mxGeometry>
        </mxCell>
        <mxCell id="2Y70LHaVx3LbV2kZEcdd-56" value="" style="endArrow=none;html=1;rounded=0;exitX=1;exitY=0.5;exitDx=0;exitDy=0;entryX=0;entryY=0.5;entryDx=0;entryDy=0;" edge="1" parent="1" source="2Y70LHaVx3LbV2kZEcdd-51" target="rGpGVCD47Dp8p_X7hgpb-1">
          <mxGeometry relative="1" as="geometry">
            <mxPoint x="-940" y="120" as="sourcePoint" />
            <mxPoint x="-780" y="120" as="targetPoint" />
          </mxGeometry>
        </mxCell>
        <mxCell id="2Y70LHaVx3LbV2kZEcdd-57" value="" style="endArrow=none;html=1;rounded=0;exitX=1;exitY=0.5;exitDx=0;exitDy=0;entryX=0;entryY=1;entryDx=0;entryDy=0;" edge="1" parent="1" source="2Y70LHaVx3LbV2kZEcdd-52" target="rGpGVCD47Dp8p_X7hgpb-1">
          <mxGeometry relative="1" as="geometry">
            <mxPoint x="-940" y="120" as="sourcePoint" />
            <mxPoint x="-790" y="120" as="targetPoint" />
          </mxGeometry>
        </mxCell>
        <mxCell id="2Y70LHaVx3LbV2kZEcdd-58" value="" style="endArrow=none;html=1;rounded=0;exitX=0.5;exitY=0;exitDx=0;exitDy=0;entryX=0.25;entryY=1;entryDx=0;entryDy=0;" edge="1" parent="1" source="2Y70LHaVx3LbV2kZEcdd-53" target="rGpGVCD47Dp8p_X7hgpb-1">
          <mxGeometry relative="1" as="geometry">
            <mxPoint x="-940" y="120" as="sourcePoint" />
            <mxPoint x="-780" y="120" as="targetPoint" />
          </mxGeometry>
        </mxCell>
        <mxCell id="2Y70LHaVx3LbV2kZEcdd-70" value="" style="endArrow=none;html=1;rounded=0;exitX=0.638;exitY=1.013;exitDx=0;exitDy=0;exitPerimeter=0;entryX=0.5;entryY=0;entryDx=0;entryDy=0;" edge="1" parent="1" source="rGpGVCD47Dp8p_X7hgpb-2" target="2Y70LHaVx3LbV2kZEcdd-71">
          <mxGeometry relative="1" as="geometry">
            <mxPoint x="-730" y="130" as="sourcePoint" />
            <mxPoint x="-680" y="420" as="targetPoint" />
          </mxGeometry>
        </mxCell>
        <mxCell id="2Y70LHaVx3LbV2kZEcdd-78" value="&lt;font style=&quot;font-size: 14px;&quot;&gt;1&lt;/font&gt;" style="edgeLabel;html=1;align=center;verticalAlign=middle;resizable=0;points=[];" connectable="0" vertex="1" parent="2Y70LHaVx3LbV2kZEcdd-70">
          <mxGeometry x="-0.0017" y="1" relative="1" as="geometry">
            <mxPoint x="-38" y="-97" as="offset" />
          </mxGeometry>
        </mxCell>
        <mxCell id="2Y70LHaVx3LbV2kZEcdd-71" value="has" style="shape=rhombus;double=1;perimeter=rhombusPerimeter;whiteSpace=wrap;html=1;align=center;" vertex="1" parent="1">
          <mxGeometry x="-780" y="415" width="120" height="60" as="geometry" />
        </mxCell>
        <mxCell id="2Y70LHaVx3LbV2kZEcdd-72" value="" style="endArrow=none;html=1;rounded=0;entryX=0.5;entryY=1;entryDx=0;entryDy=0;exitX=0.5;exitY=0;exitDx=0;exitDy=0;" edge="1" parent="1" source="rGpGVCD47Dp8p_X7hgpb-5" target="2Y70LHaVx3LbV2kZEcdd-71">
          <mxGeometry relative="1" as="geometry">
            <mxPoint x="-730" y="340" as="sourcePoint" />
            <mxPoint x="-570" y="340" as="targetPoint" />
          </mxGeometry>
        </mxCell>
        <mxCell id="2Y70LHaVx3LbV2kZEcdd-79" value="&lt;font style=&quot;font-size: 14px;&quot;&gt;M&lt;/font&gt;" style="edgeLabel;html=1;align=center;verticalAlign=middle;resizable=0;points=[];" connectable="0" vertex="1" parent="2Y70LHaVx3LbV2kZEcdd-72">
          <mxGeometry x="-0.0109" y="2" relative="1" as="geometry">
            <mxPoint x="66" y="65" as="offset" />
          </mxGeometry>
        </mxCell>
        <mxCell id="2Y70LHaVx3LbV2kZEcdd-80" value="" style="endArrow=none;html=1;rounded=0;exitX=1;exitY=0;exitDx=0;exitDy=0;entryX=0;entryY=1;entryDx=0;entryDy=0;" edge="1" parent="1" source="rGpGVCD47Dp8p_X7hgpb-1" target="2Y70LHaVx3LbV2kZEcdd-81">
          <mxGeometry relative="1" as="geometry">
            <mxPoint x="-1070" y="-40" as="sourcePoint" />
            <mxPoint x="-890" y="-80" as="targetPoint" />
          </mxGeometry>
        </mxCell>
        <mxCell id="2Y70LHaVx3LbV2kZEcdd-83" value="&lt;font style=&quot;font-size: 14px;&quot;&gt;1&lt;/font&gt;" style="edgeLabel;html=1;align=center;verticalAlign=middle;resizable=0;points=[];" connectable="0" vertex="1" parent="2Y70LHaVx3LbV2kZEcdd-80">
          <mxGeometry x="0.0055" y="-3" relative="1" as="geometry">
            <mxPoint x="-152" y="86" as="offset" />
          </mxGeometry>
        </mxCell>
        <mxCell id="2Y70LHaVx3LbV2kZEcdd-81" value="has" style="shape=rhombus;perimeter=rhombusPerimeter;whiteSpace=wrap;html=1;align=center;" vertex="1" parent="1">
          <mxGeometry x="-920" y="-140" width="120" height="60" as="geometry" />
        </mxCell>
        <mxCell id="2Y70LHaVx3LbV2kZEcdd-82" value="" style="endArrow=none;html=1;rounded=0;exitX=1;exitY=0;exitDx=0;exitDy=0;entryX=0;entryY=1;entryDx=0;entryDy=0;" edge="1" parent="1" source="2Y70LHaVx3LbV2kZEcdd-81" target="rGpGVCD47Dp8p_X7hgpb-7">
          <mxGeometry relative="1" as="geometry">
            <mxPoint x="-1070" y="-40" as="sourcePoint" />
            <mxPoint x="-910" y="-40" as="targetPoint" />
          </mxGeometry>
        </mxCell>
        <mxCell id="2Y70LHaVx3LbV2kZEcdd-84" value="&lt;font style=&quot;font-size: 14px;&quot;&gt;M&lt;/font&gt;" style="edgeLabel;html=1;align=center;verticalAlign=middle;resizable=0;points=[];" connectable="0" vertex="1" parent="2Y70LHaVx3LbV2kZEcdd-82">
          <mxGeometry x="-0.0053" y="-6" relative="1" as="geometry">
            <mxPoint x="63" y="-58" as="offset" />
          </mxGeometry>
        </mxCell>
        <mxCell id="2Y70LHaVx3LbV2kZEcdd-87" value="has" style="shape=rhombus;double=1;perimeter=rhombusPerimeter;whiteSpace=wrap;html=1;align=center;" vertex="1" parent="1">
          <mxGeometry x="-950" y="440" width="120" height="60" as="geometry" />
        </mxCell>
      </root>
    </mxGraphModel>
  </diagram>
</mxfile>
